<svg width="52" height="40" viewBox="0 0 52 40" fill="none" xmlns="http://www.w3.org/2000/svg">
<path d="M26 3C38.7026 3 49 9.82689 49 18.248C48.9998 26.6691 38.7025 33.4951 26 33.4951C23.7977 33.4951 21.6679 33.2894 19.6514 32.9062L9.42773 37.4268C8.48455 37.8436 7.44413 37.0829 7.55469 36.0576L8.41504 28.0752C5.03671 25.4212 3.00011 21.9926 3 18.248C3 9.82689 13.2974 3.00001 26 3Z" fill="white"/>
<path d="M26 3V0.872357H26L26 3ZM49 18.248L51.1276 18.2481V18.248H49ZM26 33.4951L26 35.6228H26V33.4951ZM19.6514 32.9062L20.0485 30.816L19.3972 30.6923L18.791 30.9603L19.6514 32.9062ZM9.42773 37.4268L10.2878 39.3728L10.2881 39.3727L9.42773 37.4268ZM7.55469 36.0576L9.67007 36.2857L9.67008 36.2856L7.55469 36.0576ZM8.41504 28.0752L10.5304 28.3032L10.6568 27.1306L9.72941 26.4021L8.41504 28.0752ZM3 18.248H0.872357V18.2481L3 18.248ZM26 3V5.12764C31.9922 5.12764 37.3204 6.74176 41.0878 9.23942C44.8712 11.7477 46.8724 14.9758 46.8724 18.248H49H51.1276C51.1276 13.0992 47.9801 8.70323 43.4391 5.69276C38.8822 2.67169 32.7104 0.872357 26 0.872357V3ZM49 18.248L46.8724 18.248C46.8723 21.5202 44.8711 24.748 41.0877 27.2561C37.3203 29.7535 31.9922 31.3675 26 31.3675V33.4951V35.6228C32.7103 35.6228 38.882 33.8237 43.4389 30.8028C47.9799 27.7926 51.1275 23.3969 51.1276 18.2481L49 18.248ZM26 33.4951L26 31.3675C23.9298 31.3675 21.9329 31.174 20.0485 30.816L19.6514 32.9062L19.2542 34.9965C21.4029 35.4047 23.6657 35.6228 26 35.6228L26 33.4951ZM19.6514 32.9062L18.791 30.9603L8.56733 35.4808L9.42773 37.4268L10.2881 39.3727L20.5118 34.8522L19.6514 32.9062ZM9.42773 37.4268L8.56766 35.4807C9.12368 35.235 9.73497 35.6838 9.67007 36.2857L7.55469 36.0576L5.43931 35.8295C5.15328 38.4819 7.84543 40.4522 10.2878 39.3728L9.42773 37.4268ZM7.55469 36.0576L9.67008 36.2856L10.5304 28.3032L8.41504 28.0752L6.29965 27.8472L5.4393 35.8296L7.55469 36.0576ZM8.41504 28.0752L9.72941 26.4021C6.70757 24.0282 5.12773 21.1631 5.12764 18.248L3 18.248L0.872357 18.2481C0.872489 22.8221 3.36585 26.8143 7.10066 29.7483L8.41504 28.0752ZM3 18.248H5.12764C5.12764 14.9758 7.12876 11.7477 10.9122 9.23942C14.6796 6.74176 20.0078 5.12765 26 5.12764L26 3L26 0.872357C19.2896 0.87236 13.1178 2.67169 8.56087 5.69276C4.01993 8.70323 0.872357 13.0992 0.872357 18.248H3Z" fill="black"/>
</svg>
