<svg width="51" height="50" viewBox="0 0 51 50" fill="none" xmlns="http://www.w3.org/2000/svg">
<path d="M29.0758 44.7085C27.5476 47.3555 23.7271 47.3555 22.1989 44.7085L4.48697 14.0308C2.95907 11.3839 4.86915 8.07574 7.92545 8.07573L43.3493 8.07573C46.4053 8.07602 48.3154 11.3841 46.7878 14.0308L29.0758 44.7085Z" fill="url(#paint0_linear_2020_133)" stroke="white" stroke-width="6.6287"/>
<mask id="path-2-outside-1_2020_133" maskUnits="userSpaceOnUse" x="3.74773" y="0.280762" width="42" height="43" fill="black">
<rect fill="white" x="3.74773" y="0.280762" width="42" height="43"/>
<path d="M36.3248 25.2208C37.125 25.2208 37.7251 25.3923 38.1252 25.7352C38.5539 26.0496 38.7682 26.5069 38.7682 27.107C38.7682 27.3642 38.7254 27.65 38.6396 27.9644L37.225 32.9799C36.8535 34.2088 36.3248 35.0662 35.6389 35.552C34.9816 36.0378 33.9956 36.2808 32.681 36.2808H12.533C11.9329 36.2808 11.4756 36.1807 11.1613 35.9807C10.8183 35.7806 10.6468 35.5091 10.6468 35.1662C10.6468 34.9947 10.6897 34.809 10.7754 34.6089C10.8612 34.3803 11.0041 34.1945 11.2041 34.0516C11.4042 33.8802 11.6185 33.723 11.8471 33.5801C12.3044 33.2943 12.6759 33.0085 12.9617 32.7227C13.2475 32.4084 13.4904 31.9082 13.6905 31.2223L18.9204 12.7462C19.0347 12.3747 19.0918 12.0175 19.0918 11.6745C19.0918 11.3602 19.0347 11.103 18.9204 10.9029C18.8346 10.6743 18.706 10.4171 18.5345 10.1313C18.2773 9.75975 18.1487 9.45968 18.1487 9.23105C18.1487 9.14531 18.1773 8.98813 18.2345 8.7595C18.3488 8.38798 18.5917 8.13077 18.9632 7.98788C19.3633 7.8164 19.9635 7.73067 20.7637 7.73067H30.8377C31.4378 7.73067 31.8951 7.83069 32.2094 8.03074C32.5524 8.20221 32.7239 8.45942 32.7239 8.80237C32.7239 8.94526 32.681 9.13102 32.5953 9.35965C32.5095 9.5597 32.3809 9.74546 32.2094 9.91694C32.0665 10.0598 31.9237 10.1741 31.7808 10.2599C31.6664 10.317 31.5807 10.3742 31.5236 10.4314C31.0663 10.6886 30.6948 10.9743 30.409 11.2887C30.1232 11.6031 29.8803 12.0889 29.6802 12.7462L24.1503 32.1654H26.8081C27.4654 32.1654 28.0227 32.0511 28.4799 31.8225C28.9658 31.5939 29.4659 31.1652 29.9803 30.5364L32.9382 27.0213C33.4812 26.3925 33.9956 25.9353 34.4814 25.6495C34.9959 25.3637 35.6103 25.2208 36.3248 25.2208Z"/>
</mask>
<path d="M36.3248 25.2208C37.125 25.2208 37.7251 25.3923 38.1252 25.7352C38.5539 26.0496 38.7682 26.5069 38.7682 27.107C38.7682 27.3642 38.7254 27.65 38.6396 27.9644L37.225 32.9799C36.8535 34.2088 36.3248 35.0662 35.6389 35.552C34.9816 36.0378 33.9956 36.2808 32.681 36.2808H12.533C11.9329 36.2808 11.4756 36.1807 11.1613 35.9807C10.8183 35.7806 10.6468 35.5091 10.6468 35.1662C10.6468 34.9947 10.6897 34.809 10.7754 34.6089C10.8612 34.3803 11.0041 34.1945 11.2041 34.0516C11.4042 33.8802 11.6185 33.723 11.8471 33.5801C12.3044 33.2943 12.6759 33.0085 12.9617 32.7227C13.2475 32.4084 13.4904 31.9082 13.6905 31.2223L18.9204 12.7462C19.0347 12.3747 19.0918 12.0175 19.0918 11.6745C19.0918 11.3602 19.0347 11.103 18.9204 10.9029C18.8346 10.6743 18.706 10.4171 18.5345 10.1313C18.2773 9.75975 18.1487 9.45968 18.1487 9.23105C18.1487 9.14531 18.1773 8.98813 18.2345 8.7595C18.3488 8.38798 18.5917 8.13077 18.9632 7.98788C19.3633 7.8164 19.9635 7.73067 20.7637 7.73067H30.8377C31.4378 7.73067 31.8951 7.83069 32.2094 8.03074C32.5524 8.20221 32.7239 8.45942 32.7239 8.80237C32.7239 8.94526 32.681 9.13102 32.5953 9.35965C32.5095 9.5597 32.3809 9.74546 32.2094 9.91694C32.0665 10.0598 31.9237 10.1741 31.7808 10.2599C31.6664 10.317 31.5807 10.3742 31.5236 10.4314C31.0663 10.6886 30.6948 10.9743 30.409 11.2887C30.1232 11.6031 29.8803 12.0889 29.6802 12.7462L24.1503 32.1654H26.8081C27.4654 32.1654 28.0227 32.0511 28.4799 31.8225C28.9658 31.5939 29.4659 31.1652 29.9803 30.5364L32.9382 27.0213C33.4812 26.3925 33.9956 25.9353 34.4814 25.6495C34.9959 25.3637 35.6103 25.2208 36.3248 25.2208Z" fill="white"/>
<path d="M38.1252 25.7352L33.8113 30.7681L34.0024 30.9319L34.2053 31.0807L38.1252 25.7352ZM38.6396 27.9644L45.0194 29.7638L45.0272 29.7362L45.0348 29.7085L38.6396 27.9644ZM37.225 32.9799L43.5701 34.8982L43.588 34.8389L43.6048 34.7794L37.225 32.9799ZM35.6389 35.552L31.8074 30.1428L31.7527 30.1815L31.6988 30.2214L35.6389 35.552ZM11.1612 35.9807L14.72 30.3883L14.6119 30.3195L14.5013 30.255L11.1612 35.9807ZM10.7754 34.6089L16.8682 37.2201L16.9284 37.0796L16.9821 36.9364L10.7754 34.6089ZM11.2041 34.0516L15.057 39.4456L15.2955 39.2753L15.518 39.0845L11.2041 34.0516ZM11.8471 33.5801L15.3603 39.2012H15.3603L11.8471 33.5801ZM12.9617 32.7227L17.6489 37.4099L17.7604 37.2984L17.8665 37.1817L12.9617 32.7227ZM13.6905 31.2223L20.054 33.0784L20.0614 33.0531L20.0686 33.0277L13.6905 31.2223ZM18.9204 12.7462L12.5848 10.7968L12.5627 10.8686L12.5423 10.9408L18.9204 12.7462ZM18.9204 10.9029L12.7137 13.2304L12.9008 13.7292L13.165 14.1917L18.9204 10.9029ZM18.5345 10.1313L24.2186 6.72084L24.1075 6.53568L23.9846 6.35815L18.5345 10.1313ZM18.2345 8.7595L11.8989 6.8101L11.8467 6.97968L11.8037 7.1518L18.2345 8.7595ZM18.9632 7.98788L21.3428 14.1747L21.4595 14.1299L21.5744 14.0806L18.9632 7.98788ZM32.2094 8.03074L28.6507 13.6231L28.9392 13.8067L29.245 13.9596L32.2094 8.03074ZM32.5953 9.35965L38.688 11.9709L38.7482 11.8303L38.8019 11.6871L32.5953 9.35965ZM32.2094 9.91694L36.8966 14.6041L36.8967 14.6041L32.2094 9.91694ZM31.7808 10.2599L34.7453 16.1887L34.9729 16.0749L35.1912 15.944L31.7808 10.2599ZM31.5236 10.4314L34.7734 16.2088L35.5669 15.7624L36.2107 15.1186L31.5236 10.4314ZM30.409 11.2887L35.3138 15.7477L35.3138 15.7477L30.409 11.2887ZM29.6802 12.7462L23.3387 10.8162L23.3213 10.8733L23.305 10.9308L29.6802 12.7462ZM24.1503 32.1654L17.775 30.35L15.3704 38.7941H24.1503V32.1654ZM28.4799 31.8225L25.6574 25.8247L25.5861 25.8583L25.5155 25.8936L28.4799 31.8225ZM29.9803 30.5364L24.9083 26.2686L24.8789 26.3035L24.85 26.3389L29.9803 30.5364ZM32.9382 27.0213L27.9214 22.6886L27.8936 22.7208L27.8662 22.7534L32.9382 27.0213ZM34.4814 25.6495L31.2623 19.855L31.1909 19.8946L31.1206 19.936L34.4814 25.6495ZM36.3248 25.2208V31.8495C36.273 31.8495 35.9855 31.8464 35.554 31.7231C35.1035 31.5944 34.4574 31.3219 33.8113 30.7681L38.1252 25.7352L42.4391 20.7023C40.3501 18.9118 37.9181 18.5921 36.3248 18.5921V25.2208ZM38.1252 25.7352L34.2053 31.0807C33.5733 30.6172 32.9944 29.9571 32.6055 29.1274C32.2294 28.3251 32.1395 27.5983 32.1395 27.107H38.7682H45.397C45.397 24.7085 44.4144 22.1272 42.0452 20.3898L38.1252 25.7352ZM38.7682 27.107H32.1395C32.1395 26.6427 32.2144 26.3307 32.2445 26.2202L38.6396 27.9644L45.0348 29.7085C45.2364 28.9693 45.397 28.0857 45.397 27.107H38.7682ZM38.6396 27.9644L32.2599 26.1649L30.8452 31.1805L37.225 32.9799L43.6048 34.7794L45.0194 29.7638L38.6396 27.9644ZM37.225 32.9799L30.8799 31.0616C30.817 31.2697 30.8021 31.2364 30.9077 31.0653C31.0201 30.883 31.294 30.5065 31.8074 30.1428L35.6389 35.552L39.4704 40.9612C41.8466 39.2781 42.9852 36.8326 43.5701 34.8982L37.225 32.9799ZM35.6389 35.552L31.6988 30.2214C32.2225 29.8343 32.663 29.7012 32.8207 29.6623C32.9727 29.6249 32.9515 29.6521 32.681 29.6521V36.2808V42.9095C34.6181 42.9095 37.2744 42.586 39.5789 40.8827L35.6389 35.552ZM32.681 36.2808V29.6521H12.533V36.2808V42.9095H32.681V36.2808ZM12.533 36.2808V29.6521C12.5831 29.6521 12.8109 29.6546 13.1565 29.7302C13.5015 29.8056 14.0766 29.9788 14.72 30.3883L11.1612 35.9807L7.60246 41.5731C9.44651 42.7466 11.3708 42.9095 12.533 42.9095V36.2808ZM11.1612 35.9807L14.5013 30.255C15.0355 30.5666 15.7784 31.135 16.3799 32.0873C17.0092 33.0838 17.2755 34.1736 17.2755 35.1662H10.6468H4.01813C4.01813 38.2786 5.82459 40.5417 7.82124 41.7064L11.1612 35.9807ZM10.6468 35.1662H17.2755C17.2755 36.0991 17.0444 36.8089 16.8682 37.2201L10.7754 34.6089L4.6827 31.9977C4.33502 32.809 4.01813 33.8903 4.01813 35.1662H10.6468ZM10.7754 34.6089L16.9821 36.9364C16.602 37.9501 15.921 38.8285 15.057 39.4456L11.2041 34.0516L7.35126 28.6576C6.08718 29.5605 5.12038 30.8105 4.56879 32.2814L10.7754 34.6089ZM11.2041 34.0516L15.518 39.0845C15.4605 39.1338 15.4064 39.1724 15.3603 39.2012L11.8471 33.5801L8.33393 27.9589C7.8306 28.2735 7.34785 28.6265 6.89021 29.0187L11.2041 34.0516ZM11.8471 33.5801L15.3603 39.2012C16.1112 38.7319 16.9132 38.1456 17.6489 37.4099L12.9617 32.7227L8.27451 28.0355C8.31989 27.9901 8.35654 27.9569 8.38168 27.935C8.40686 27.9131 8.42271 27.9007 8.42713 27.8973C8.43445 27.8917 8.40698 27.9133 8.33393 27.9589L11.8471 33.5801ZM12.9617 32.7227L17.8665 37.1817C19.1423 35.7783 19.7396 34.1562 20.054 33.0784L13.6905 31.2223L7.32691 29.3663C7.30334 29.4471 7.31626 29.3792 7.39566 29.2157C7.47043 29.0618 7.6667 28.693 8.05686 28.2638L12.9617 32.7227ZM13.6905 31.2223L20.0686 33.0277L25.2985 14.5516L18.9204 12.7462L12.5423 10.9408L7.31236 29.4169L13.6905 31.2223ZM18.9204 12.7462L25.2559 14.6956C25.5391 13.7754 25.7205 12.7597 25.7205 11.6745H19.0918H12.4631C12.4631 11.2753 12.5303 10.974 12.5848 10.7968L18.9204 12.7462ZM19.0918 11.6745H25.7205C25.7205 10.6093 25.5336 9.11545 24.6757 7.61414L18.9204 10.9029L13.165 14.1917C12.5358 13.0905 12.4631 12.111 12.4631 11.6745H19.0918ZM18.9204 10.9029L25.127 8.57541C24.8598 7.86295 24.5276 7.23584 24.2186 6.72084L18.5345 10.1313L12.8505 13.5417C12.8623 13.5614 12.8531 13.5477 12.8307 13.503C12.809 13.4595 12.765 13.3672 12.7137 13.2304L18.9204 10.9029ZM18.5345 10.1313L23.9846 6.35815C24.02 6.40925 24.1753 6.63686 24.3379 7.0164C24.4874 7.36523 24.7774 8.15019 24.7774 9.23105H18.1487H11.52C11.52 11.5975 12.685 13.3274 13.0845 13.9044L18.5345 10.1313ZM18.1487 9.23105H24.7774C24.7774 9.55164 24.7525 9.79971 24.7374 9.92786C24.7207 10.0694 24.7026 10.1762 24.692 10.2346C24.6716 10.3468 24.6569 10.4007 24.6653 10.3672L18.2345 8.7595L11.8037 7.1518C11.7678 7.29548 11.52 8.21177 11.52 9.23105H18.1487ZM18.2345 8.7595L24.57 10.7089C24.358 11.3979 23.9653 12.1578 23.3216 12.8394C22.6816 13.517 21.9658 13.9351 21.3428 14.1747L18.9632 7.98788L16.5837 1.801C14.3663 2.65385 12.6282 4.43986 11.8989 6.8101L18.2345 8.7595ZM18.9632 7.98788L21.5744 14.0806C21.3121 14.193 21.0961 14.2581 20.9516 14.2952C20.8055 14.3328 20.701 14.3499 20.6509 14.3571C20.5604 14.37 20.5844 14.3594 20.7637 14.3594V7.73067V1.10196C19.6923 1.10196 18.0051 1.1867 16.3521 1.89513L18.9632 7.98788ZM20.7637 7.73067V14.3594H30.8377V7.73067V1.10196H20.7637V7.73067ZM30.8377 7.73067V14.3594C30.7876 14.3594 30.5598 14.3569 30.2142 14.2813C29.8692 14.2058 29.2941 14.0326 28.6507 13.6231L32.2094 8.03074L35.7682 2.43835C33.9242 1.26488 31.9999 1.10196 30.8377 1.10196V7.73067ZM32.2094 8.03074L29.245 13.9596C28.6301 13.6522 27.7707 13.0655 27.0798 12.0292C26.3613 10.9514 26.0952 9.79081 26.0952 8.80237H32.7239H39.3526C39.3526 7.47098 39.0007 6.01031 38.1107 4.67531C37.2483 3.38181 36.1317 2.58077 35.1739 2.10185L32.2094 8.03074ZM32.7239 8.80237H26.0952C26.0952 8.23751 26.1763 7.80286 26.2328 7.55834C26.2921 7.30109 26.3559 7.11936 26.3886 7.03217L32.5953 9.35965L38.8019 11.6871C38.9977 11.165 39.3526 10.1102 39.3526 8.80237H32.7239ZM32.5953 9.35965L26.5025 6.74845C26.7849 6.08969 27.1654 5.5866 27.5222 5.22976L32.2094 9.91694L36.8967 14.6041C37.5964 13.9043 38.2342 13.0297 38.688 11.9709L32.5953 9.35965ZM32.2094 9.91694L27.5222 5.22974C27.6845 5.06747 27.9625 4.8205 28.3704 4.57579L31.7808 10.2599L35.1912 15.944C35.8848 15.5278 36.4486 15.0522 36.8966 14.6041L32.2094 9.91694ZM31.7808 10.2599L28.8163 4.33101C28.39 4.54413 27.6025 4.97805 26.8364 5.74411L31.5236 10.4314L36.2107 15.1186C35.8601 15.4692 35.5343 15.71 35.3077 15.861C35.0753 16.0159 34.8782 16.1223 34.7453 16.1887L31.7808 10.2599ZM31.5236 10.4314L28.2738 4.65394C27.3373 5.18069 26.3644 5.88349 25.5041 6.82977L30.409 11.2887L35.3138 15.7477C35.0252 16.0652 34.7953 16.1964 34.7734 16.2088L31.5236 10.4314ZM30.409 11.2887L25.5042 6.82975C24.2735 8.18348 23.6684 9.73297 23.3387 10.8162L29.6802 12.7462L36.0217 14.6762C36.0404 14.6148 36.023 14.69 35.9413 14.8533C35.8628 15.0103 35.6741 15.3514 35.3138 15.7477L30.409 11.2887ZM29.6802 12.7462L23.305 10.9308L17.775 30.35L24.1503 32.1654L30.5255 33.9809L36.0555 14.5617L29.6802 12.7462ZM24.1503 32.1654V38.7941H26.8081V32.1654V25.5367H24.1503V32.1654ZM26.8081 32.1654V38.7941C28.2098 38.7941 29.8421 38.5525 31.4444 37.7514L28.4799 31.8225L25.5155 25.8936C26.2033 25.5497 26.7209 25.5367 26.8081 25.5367V32.1654ZM28.4799 31.8225L31.3024 37.8203C33.0219 37.0111 34.2626 35.7705 35.1106 34.734L29.9803 30.5364L24.85 26.3389C24.7852 26.4181 24.8004 26.3867 24.9055 26.2966C25.0091 26.2079 25.2567 26.0133 25.6574 25.8247L28.4799 31.8225ZM29.9803 30.5364L35.0523 34.8043L38.0102 31.2892L32.9382 27.0213L27.8662 22.7534L24.9083 26.2686L29.9803 30.5364ZM32.9382 27.0213L37.955 31.3539C38.0126 31.2872 38.0575 31.2389 38.0894 31.2062C38.1214 31.1733 38.1368 31.1597 38.1351 31.1611C38.1336 31.1625 38.1103 31.1832 38.0646 31.2171C38.019 31.251 37.945 31.3026 37.8423 31.363L34.4814 25.6495L31.1206 19.936C29.7908 20.7182 28.7349 21.7467 27.9214 22.6886L32.9382 27.0213ZM34.4814 25.6495L37.7006 31.444C37.04 31.811 36.497 31.8495 36.3248 31.8495V25.2208V18.5921C34.7236 18.5921 32.9517 18.9164 31.2623 19.855L34.4814 25.6495Z" fill="white" mask="url(#path-2-outside-1_2020_133)"/>
<path d="M27.2008 43.6265C26.5059 44.8299 24.7689 44.8298 24.0739 43.6265L6.36197 12.9488C5.66703 11.7451 6.53557 10.2408 7.92545 10.2408L43.3493 10.2408C44.7389 10.2411 45.6075 11.7452 44.9128 12.9488L27.2008 43.6265Z" fill="#FF8F03" stroke="#975300" stroke-width="2.29889"/>
<mask id="path-5-outside-2_2020_133" maskUnits="userSpaceOnUse" x="7.74773" y="5.28076" width="34" height="34" fill="black">
<rect fill="white" x="7.74773" y="5.28076" width="34" height="34"/>
<path d="M36.3248 25.2208C37.125 25.2208 37.7251 25.3923 38.1252 25.7352C38.5539 26.0496 38.7682 26.5069 38.7682 27.107C38.7682 27.3642 38.7254 27.65 38.6396 27.9644L37.225 32.9799C36.8535 34.2088 36.3248 35.0662 35.6389 35.552C34.9816 36.0378 33.9956 36.2808 32.681 36.2808H12.533C11.9329 36.2808 11.4756 36.1807 11.1613 35.9807C10.8183 35.7806 10.6468 35.5091 10.6468 35.1662C10.6468 34.9947 10.6897 34.809 10.7754 34.6089C10.8612 34.3803 11.0041 34.1945 11.2041 34.0516C11.4042 33.8802 11.6185 33.723 11.8471 33.5801C12.3044 33.2943 12.6759 33.0085 12.9617 32.7227C13.2475 32.4084 13.4904 31.9082 13.6905 31.2223L18.9204 12.7462C19.0347 12.3747 19.0918 12.0175 19.0918 11.6745C19.0918 11.3602 19.0347 11.103 18.9204 10.9029C18.8346 10.6743 18.706 10.4171 18.5345 10.1313C18.2773 9.75975 18.1487 9.45968 18.1487 9.23105C18.1487 9.14531 18.1773 8.98813 18.2345 8.7595C18.3488 8.38798 18.5917 8.13077 18.9632 7.98788C19.3633 7.8164 19.9635 7.73067 20.7637 7.73067H30.8377C31.4378 7.73067 31.8951 7.83069 32.2094 8.03074C32.5524 8.20221 32.7239 8.45942 32.7239 8.80237C32.7239 8.94526 32.681 9.13102 32.5953 9.35965C32.5095 9.5597 32.3809 9.74546 32.2094 9.91694C32.0665 10.0598 31.9237 10.1741 31.7808 10.2599C31.6664 10.317 31.5807 10.3742 31.5236 10.4314C31.0663 10.6886 30.6948 10.9743 30.409 11.2887C30.1232 11.6031 29.8803 12.0889 29.6802 12.7462L24.1503 32.1654H26.8081C27.4654 32.1654 28.0227 32.0511 28.4799 31.8225C28.9658 31.5939 29.4659 31.1652 29.9803 30.5364L32.9382 27.0213C33.4812 26.3925 33.9956 25.9353 34.4814 25.6495C34.9959 25.3637 35.6103 25.2208 36.3248 25.2208Z"/>
</mask>
<path d="M36.3248 25.2208C37.125 25.2208 37.7251 25.3923 38.1252 25.7352C38.5539 26.0496 38.7682 26.5069 38.7682 27.107C38.7682 27.3642 38.7254 27.65 38.6396 27.9644L37.225 32.9799C36.8535 34.2088 36.3248 35.0662 35.6389 35.552C34.9816 36.0378 33.9956 36.2808 32.681 36.2808H12.533C11.9329 36.2808 11.4756 36.1807 11.1613 35.9807C10.8183 35.7806 10.6468 35.5091 10.6468 35.1662C10.6468 34.9947 10.6897 34.809 10.7754 34.6089C10.8612 34.3803 11.0041 34.1945 11.2041 34.0516C11.4042 33.8802 11.6185 33.723 11.8471 33.5801C12.3044 33.2943 12.6759 33.0085 12.9617 32.7227C13.2475 32.4084 13.4904 31.9082 13.6905 31.2223L18.9204 12.7462C19.0347 12.3747 19.0918 12.0175 19.0918 11.6745C19.0918 11.3602 19.0347 11.103 18.9204 10.9029C18.8346 10.6743 18.706 10.4171 18.5345 10.1313C18.2773 9.75975 18.1487 9.45968 18.1487 9.23105C18.1487 9.14531 18.1773 8.98813 18.2345 8.7595C18.3488 8.38798 18.5917 8.13077 18.9632 7.98788C19.3633 7.8164 19.9635 7.73067 20.7637 7.73067H30.8377C31.4378 7.73067 31.8951 7.83069 32.2094 8.03074C32.5524 8.20221 32.7239 8.45942 32.7239 8.80237C32.7239 8.94526 32.681 9.13102 32.5953 9.35965C32.5095 9.5597 32.3809 9.74546 32.2094 9.91694C32.0665 10.0598 31.9237 10.1741 31.7808 10.2599C31.6664 10.317 31.5807 10.3742 31.5236 10.4314C31.0663 10.6886 30.6948 10.9743 30.409 11.2887C30.1232 11.6031 29.8803 12.0889 29.6802 12.7462L24.1503 32.1654H26.8081C27.4654 32.1654 28.0227 32.0511 28.4799 31.8225C28.9658 31.5939 29.4659 31.1652 29.9803 30.5364L32.9382 27.0213C33.4812 26.3925 33.9956 25.9353 34.4814 25.6495C34.9959 25.3637 35.6103 25.2208 36.3248 25.2208Z" fill="#FBF1F0"/>
<path d="M38.1252 25.7352L36.6291 27.4807L36.6954 27.5375L36.7658 27.5891L38.1252 25.7352ZM38.6396 27.9644L40.8522 28.5884L40.8549 28.5788L40.8575 28.5693L38.6396 27.9644ZM37.225 32.9799L39.4255 33.6452L39.4317 33.6246L39.4376 33.604L37.225 32.9799ZM35.6389 35.552L34.3101 33.6761L34.2911 33.6895L34.2724 33.7033L35.6389 35.552ZM11.1612 35.9807L12.3955 34.0412L12.358 34.0173L12.3196 33.995L11.1612 35.9807ZM10.7754 34.6089L12.8885 35.5145L12.9093 35.4658L12.928 35.4161L10.7754 34.6089ZM11.2041 34.0516L12.5403 35.9223L12.623 35.8632L12.7002 35.7971L11.2041 34.0516ZM11.8471 33.5801L13.0655 35.5295H13.0655L11.8471 33.5801ZM12.9617 32.7227L14.5873 34.3483L14.6259 34.3096L14.6627 34.2691L12.9617 32.7227ZM13.6905 31.2223L15.8974 31.866L15.9 31.8573L15.9024 31.8485L13.6905 31.2223ZM18.9204 12.7462L16.7231 12.0702L16.7155 12.095L16.7084 12.1201L18.9204 12.7462ZM18.9204 10.9029L16.7678 11.7101L16.8327 11.8831L16.9244 12.0435L18.9204 10.9029ZM18.5345 10.1313L20.5058 8.94851L20.4673 8.88429L20.4247 8.82273L18.5345 10.1313ZM18.2345 8.7595L16.0372 8.08343L16.0191 8.14224L16.0042 8.20194L18.2345 8.7595ZM18.9632 7.98788L19.7885 10.1335L19.8289 10.118L19.8688 10.1009L18.9632 7.98788ZM32.2094 8.03074L30.9752 9.97023L31.0753 10.0339L31.1814 10.0869L32.2094 8.03074ZM32.5953 9.35965L34.7083 10.2652L34.7292 10.2165L34.7478 10.1668L32.5953 9.35965ZM32.2094 9.91694L33.835 11.5425L33.835 11.5425L32.2094 9.91694ZM31.7808 10.2599L32.8089 12.3161L32.8878 12.2766L32.9635 12.2312L31.7808 10.2599ZM31.5236 10.4314L32.6506 12.435L32.9258 12.2802L33.1491 12.0569L31.5236 10.4314ZM30.409 11.2887L32.11 12.8351L32.11 12.8351L30.409 11.2887ZM29.6802 12.7462L27.4809 12.0769L27.4749 12.0967L27.4692 12.1166L29.6802 12.7462ZM24.1503 32.1654L21.9393 31.5358L21.1053 34.4643H24.1503V32.1654ZM28.4799 31.8225L27.5011 29.7424L27.4763 29.7541L27.4518 29.7663L28.4799 31.8225ZM29.9803 30.5364L28.2213 29.0563L28.2111 29.0684L28.2011 29.0807L29.9803 30.5364ZM32.9382 27.0213L31.1983 25.5187L31.1887 25.5298L31.1792 25.5411L32.9382 27.0213ZM34.4814 25.6495L33.365 23.6399L33.3403 23.6537L33.3159 23.668L34.4814 25.6495ZM36.3248 25.2208V27.5197C36.5681 27.5197 36.6971 27.5466 36.7435 27.5599C36.7833 27.5712 36.7225 27.5607 36.6291 27.4807L38.1252 25.7352L39.6213 23.9898C38.6355 23.1448 37.4 22.9219 36.3248 22.9219V25.2208ZM38.1252 25.7352L36.7658 27.5891C36.6866 27.531 36.5908 27.4281 36.5259 27.2897C36.4655 27.1608 36.4694 27.0814 36.4694 27.107H38.7682H41.0671C41.0671 25.8832 40.5864 24.6893 39.4847 23.8814L38.1252 25.7352ZM38.7682 27.107H36.4694C36.4694 27.114 36.4673 27.1925 36.4218 27.3595L38.6396 27.9644L40.8575 28.5693C40.9834 28.1076 41.0671 27.6144 41.0671 27.107H38.7682ZM38.6396 27.9644L36.4271 27.3403L35.0124 32.3559L37.225 32.9799L39.4376 33.604L40.8522 28.5884L38.6396 27.9644ZM37.225 32.9799L35.0245 32.3146C34.7269 33.2988 34.4098 33.6054 34.3101 33.6761L35.6389 35.552L36.9677 37.428C38.2398 36.5269 38.98 35.1188 39.4255 33.6452L37.225 32.9799ZM35.6389 35.552L34.2724 33.7033C34.1864 33.7669 33.7797 33.9819 32.681 33.9819V36.2808V38.5797C34.2115 38.5797 35.7768 38.3088 37.0053 37.4007L35.6389 35.552ZM32.681 36.2808V33.9819H12.533V36.2808V38.5797H32.681V36.2808ZM12.533 36.2808V33.9819C12.4462 33.9819 12.3779 33.9782 12.3262 33.9733C12.2743 33.9684 12.2438 33.9627 12.2312 33.96C12.2016 33.9535 12.275 33.9645 12.3955 34.0412L11.1612 35.9807L9.92703 37.9202C10.7719 38.4578 11.7379 38.5797 12.533 38.5797V36.2808ZM11.1612 35.9807L12.3196 33.995C12.3929 34.0377 12.5665 34.1578 12.7191 34.3994C12.8814 34.6563 12.9457 34.934 12.9457 35.1662H10.6468H8.34794C8.34794 36.4696 9.08644 37.4318 10.0029 37.9664L11.1612 35.9807ZM10.6468 35.1662H12.9457C12.9457 35.3777 12.8936 35.5026 12.8885 35.5145L10.7754 34.6089L8.66242 33.7033C8.48584 34.1154 8.34794 34.6117 8.34794 35.1662H10.6468ZM10.7754 34.6089L12.928 35.4161C12.8942 35.5062 12.8423 35.6045 12.7691 35.6998C12.6959 35.7949 12.6154 35.8687 12.5403 35.9223L11.2041 34.0516L9.86792 32.1809C9.29885 32.5874 8.87022 33.1423 8.62292 33.8017L10.7754 34.6089ZM11.2041 34.0516L12.7002 35.7971C12.8109 35.7022 12.9322 35.6129 13.0655 35.5295L11.8471 33.5801L10.6287 31.6306C10.3048 31.8331 9.9974 32.0581 9.70802 32.3062L11.2041 34.0516ZM11.8471 33.5801L13.0655 35.5295C13.6246 35.1801 14.1454 34.7901 14.5873 34.3483L12.9617 32.7227L11.3361 31.0972C11.2064 31.2269 10.9842 31.4085 10.6287 31.6306L11.8471 33.5801ZM12.9617 32.7227L14.6627 34.2691C15.2919 33.5771 15.6577 32.6878 15.8974 31.866L13.6905 31.2223L11.4835 30.5786C11.41 30.8307 11.3422 31.0008 11.2904 31.1075C11.237 31.2174 11.2187 31.2225 11.2607 31.1763L12.9617 32.7227ZM13.6905 31.2223L15.9024 31.8485L21.1323 13.3724L18.9204 12.7462L16.7084 12.1201L11.4785 30.5962L13.6905 31.2223ZM18.9204 12.7462L21.1176 13.4223C21.2905 12.8605 21.3907 12.2749 21.3907 11.6745H19.0918H16.7929C16.7929 11.7601 16.7789 11.8889 16.7231 12.0702L18.9204 12.7462ZM19.0918 11.6745H21.3907C21.3907 11.0998 21.2885 10.4137 20.9164 9.76233L18.9204 10.9029L16.9244 12.0435C16.7808 11.7922 16.7929 11.6205 16.7929 11.6745H19.0918ZM18.9204 10.9029L21.0729 10.0957C20.9242 9.69928 20.725 9.31379 20.5058 8.94851L18.5345 10.1313L16.5633 11.314C16.687 11.5203 16.745 11.6493 16.7678 11.7101L18.9204 10.9029ZM18.5345 10.1313L20.4247 8.82273C20.3529 8.71911 20.3438 8.68837 20.3582 8.722C20.3667 8.74178 20.3873 8.79316 20.4066 8.87257C20.4259 8.95182 20.4476 9.07444 20.4476 9.23105H18.1487H15.8498C15.8498 10.2011 16.3379 10.997 16.6444 11.4398L18.5345 10.1313ZM18.1487 9.23105H20.4476C20.4476 9.28271 20.4455 9.32457 20.4435 9.35372C20.4415 9.38344 20.439 9.40666 20.4372 9.42196C20.4338 9.4512 20.431 9.4655 20.432 9.4601C20.4327 9.45594 20.4354 9.44194 20.4411 9.41628C20.4467 9.39104 20.4544 9.35825 20.4647 9.31706L18.2345 8.7595L16.0042 8.20194C15.9544 8.40111 15.8498 8.82155 15.8498 9.23105H18.1487ZM18.2345 8.7595L20.4317 9.43557C20.3955 9.55319 20.3176 9.71405 20.1737 9.86642C20.0311 10.0174 19.8832 10.0971 19.7885 10.1335L18.9632 7.98788L18.138 5.84222C17.1263 6.23133 16.3648 7.01874 16.0372 8.08343L18.2345 8.7595ZM18.9632 7.98788L19.8688 10.1009C19.8267 10.1189 19.8664 10.0953 20.0385 10.0708C20.2032 10.0472 20.4402 10.0296 20.7637 10.0296V7.73067V5.43178C19.8694 5.43178 18.8923 5.51717 18.0577 5.87486L18.9632 7.98788ZM20.7637 7.73067V10.0296H30.8377V7.73067V5.43178H20.7637V7.73067ZM30.8377 7.73067V10.0296C30.9245 10.0296 30.9928 10.0332 31.0445 10.0381C31.0963 10.043 31.1269 10.0487 31.1395 10.0515C31.1691 10.058 31.0957 10.0469 30.9752 9.97023L32.2094 8.03074L33.4437 6.09126C32.5988 5.55361 31.6327 5.43178 30.8377 5.43178V7.73067ZM32.2094 8.03074L31.1814 10.0869C31.0801 10.0363 30.8661 9.90284 30.6825 9.62745C30.4893 9.33766 30.425 9.03316 30.425 8.80237H32.7239H35.0227C35.0227 8.22863 34.8727 7.62405 34.508 7.07706C34.153 6.54446 33.6817 6.19665 33.2375 5.97455L32.2094 8.03074ZM32.7239 8.80237H30.425C30.425 8.65314 30.4461 8.55607 30.4517 8.53193C30.4583 8.50339 30.4594 8.50803 30.4427 8.55246L32.5953 9.35965L34.7478 10.1668C34.8717 9.83642 35.0227 9.34926 35.0227 8.80237H32.7239ZM32.5953 9.35965L30.4822 8.45407C30.5242 8.35627 30.5721 8.30313 30.5839 8.29138L32.2094 9.91694L33.835 11.5425C34.1897 11.1878 34.4949 10.7631 34.7083 10.2652L32.5953 9.35965ZM32.2094 9.91694L30.5839 8.29138C30.5663 8.30895 30.5578 8.31567 30.559 8.31471C30.5602 8.31371 30.5731 8.30355 30.598 8.28859L31.7808 10.2599L32.9635 12.2312C33.2974 12.0308 33.5863 11.7912 33.835 11.5425L32.2094 9.91694ZM31.7808 10.2599L30.7526 8.2037C30.5302 8.31494 30.201 8.50277 29.898 8.80578L31.5236 10.4314L33.1491 12.0569C33.0462 12.1599 32.9565 12.2247 32.9059 12.2584C32.8533 12.2935 32.8176 12.3117 32.8089 12.3161L31.7808 10.2599ZM31.5236 10.4314L30.3965 8.42769C29.7731 8.77838 29.193 9.2088 28.7079 9.74232L30.409 11.2887L32.11 12.8351C32.1966 12.7399 32.3595 12.5987 32.6506 12.435L31.5236 10.4314ZM30.409 11.2887L28.7079 9.74231C28.0945 10.4171 27.7259 11.2719 27.4809 12.0769L29.6802 12.7462L31.8795 13.4156C31.9513 13.1796 32.0176 13.019 32.0686 12.917C32.1208 12.8127 32.1416 12.8004 32.11 12.8351L30.409 11.2887ZM29.6802 12.7462L27.4692 12.1166L21.9393 31.5358L24.1503 32.1654L26.3612 32.7951L31.8912 13.3758L29.6802 12.7462ZM24.1503 32.1654V34.4643H26.8081V32.1654V29.8665H24.1503V32.1654ZM26.8081 32.1654V34.4643C27.7236 34.4643 28.6536 34.3059 29.508 33.8787L28.4799 31.8225L27.4518 29.7663C27.3917 29.7964 27.2072 29.8665 26.8081 29.8665V32.1654ZM28.4799 31.8225L29.4588 33.9026C30.3725 33.4726 31.1294 32.7624 31.7595 31.9922L29.9803 30.5364L28.2011 29.0807C27.8024 29.568 27.5591 29.7151 27.5011 29.7424L28.4799 31.8225ZM29.9803 30.5364L31.7393 32.0166L34.6972 28.5014L32.9382 27.0213L31.1792 25.5411L28.2213 29.0563L29.9803 30.5364ZM32.9382 27.0213L34.6781 28.5239C35.1272 28.0037 35.4539 27.7446 35.647 27.631L34.4814 25.6495L33.3159 23.668C32.5373 24.126 31.8351 24.7813 31.1983 25.5187L32.9382 27.0213ZM34.4814 25.6495L35.5979 27.6591C35.7048 27.5997 35.9178 27.5197 36.3248 27.5197V25.2208V22.9219C35.3028 22.9219 34.2869 23.1277 33.365 23.6399L34.4814 25.6495Z" fill="#975300" mask="url(#path-5-outside-2_2020_133)"/>
<defs>
<linearGradient id="paint0_linear_2020_133" x1="25.6372" y1="0.507973" x2="25.6372" y2="44.0357" gradientUnits="userSpaceOnUse">
<stop stop-color="#FFCE1F"/>
<stop offset="1" stop-color="#FF8800"/>
</linearGradient>
</defs>
</svg>
