<svg width="54" height="54" viewBox="0 0 54 54" fill="none" xmlns="http://www.w3.org/2000/svg">
<path d="M29.4971 48.7702C27.9641 50.133 25.6471 50.1331 24.1143 48.7702L23.9639 48.6296L4.73047 29.7282C3.11386 28.1395 3.11405 25.5339 4.73047 23.945L23.9639 5.04269C25.5412 3.49255 28.0701 3.49262 29.6475 5.04269L48.8809 23.945C50.4974 25.5339 50.4975 28.1395 48.8809 29.7282L29.6475 48.6296L29.4971 48.7702Z" fill="#A25C1E" stroke="white" stroke-width="6.76161"/>
<mask id="path-2-outside-1_2026_309" maskUnits="userSpaceOnUse" x="3.08902" y="0.731613" width="42" height="49" fill="black">
<rect fill="white" x="3.08902" y="0.731613" width="42" height="49"/>
<path d="M37.981 35.376C38.0196 36.4959 37.7493 37.6158 37.3632 38.6584C37.0928 39.3149 36.7839 39.9714 36.3977 40.5893C35.8957 41.4002 35.2779 42.1339 34.2352 42.3656C33.7332 42.4815 33.2698 42.5201 32.7678 42.4042C30.528 41.9022 28.6358 39.9328 27.207 38.2336C25.7781 36.5731 24.5038 34.7581 23.3839 32.8659C22.9977 32.248 22.6502 31.6302 22.3412 31.0123C22.264 30.8964 22.2254 30.742 22.1482 30.5875C22.0323 30.6261 21.8778 30.6647 21.762 30.6647C21.1827 30.7806 20.6035 30.8578 19.9856 30.9737C18.9044 33.8699 16.4715 38.6584 12.9188 37.6544C11.6444 37.3454 10.5245 36.4186 10.1383 35.1443C9.63633 33.6382 10.2928 32.0163 11.2968 30.9351C12.3395 29.8152 13.8456 29.2359 14.7724 28.0002C16.2784 25.9149 17.3211 23.3276 17.7072 20.7789C17.7458 20.5085 17.7458 20.2382 17.7845 19.9679C17.8231 19.2342 18.2479 18.3846 18.9044 17.9212C19.5608 17.4964 20.449 17.6509 21.0283 18.1529C21.9937 18.9253 21.8778 20.2768 21.6848 21.3581C21.3372 23.2889 20.951 25.4129 20.6035 27.2665C20.951 27.2279 20.951 27.2279 21.1055 27.1892C23.1136 26.4169 24.9672 25.3742 26.6277 24.0227C27.6317 23.2117 28.4813 22.3235 29.1378 21.2036C29.524 20.5858 29.7943 19.9679 29.8715 19.2342C30.1418 16.3379 26.1643 15.4497 23.9631 15.6042C21.3758 15.7973 18.9044 16.4152 16.5873 17.535C16.2398 17.6895 15.8922 17.8054 15.5061 17.8054C12.6871 17.9212 15.5447 12.0901 16.0467 11.0088C16.7032 9.54138 17.8617 8.49872 19.4836 8.11256C26.2802 6.45203 37.8652 8.26702 36.5136 17.7281C36.166 20.2768 34.9689 22.4008 33.3084 24.293C31.1459 26.7258 28.5972 28.4636 25.6623 29.5835C25.7009 29.6607 25.7395 29.7379 25.7781 29.8152C26.2415 30.5875 27.4773 31.6688 28.2496 32.0936C29.6398 32.8273 31.0686 33.3293 32.6905 33.2135C33.6946 33.1748 34.6986 33.1362 35.7026 33.1362C37.1701 33.1362 37.9038 33.8699 37.981 35.376Z"/>
</mask>
<path d="M37.981 35.376C38.0196 36.4959 37.7493 37.6158 37.3632 38.6584C37.0928 39.3149 36.7839 39.9714 36.3977 40.5893C35.8957 41.4002 35.2779 42.1339 34.2352 42.3656C33.7332 42.4815 33.2698 42.5201 32.7678 42.4042C30.528 41.9022 28.6358 39.9328 27.207 38.2336C25.7781 36.5731 24.5038 34.7581 23.3839 32.8659C22.9977 32.248 22.6502 31.6302 22.3412 31.0123C22.264 30.8964 22.2254 30.742 22.1482 30.5875C22.0323 30.6261 21.8778 30.6647 21.762 30.6647C21.1827 30.7806 20.6035 30.8578 19.9856 30.9737C18.9044 33.8699 16.4715 38.6584 12.9188 37.6544C11.6444 37.3454 10.5245 36.4186 10.1383 35.1443C9.63633 33.6382 10.2928 32.0163 11.2968 30.9351C12.3395 29.8152 13.8456 29.2359 14.7724 28.0002C16.2784 25.9149 17.3211 23.3276 17.7072 20.7789C17.7458 20.5085 17.7458 20.2382 17.7845 19.9679C17.8231 19.2342 18.2479 18.3846 18.9044 17.9212C19.5608 17.4964 20.449 17.6509 21.0283 18.1529C21.9937 18.9253 21.8778 20.2768 21.6848 21.3581C21.3372 23.2889 20.951 25.4129 20.6035 27.2665C20.951 27.2279 20.951 27.2279 21.1055 27.1892C23.1136 26.4169 24.9672 25.3742 26.6277 24.0227C27.6317 23.2117 28.4813 22.3235 29.1378 21.2036C29.524 20.5858 29.7943 19.9679 29.8715 19.2342C30.1418 16.3379 26.1643 15.4497 23.9631 15.6042C21.3758 15.7973 18.9044 16.4152 16.5873 17.535C16.2398 17.6895 15.8922 17.8054 15.5061 17.8054C12.6871 17.9212 15.5447 12.0901 16.0467 11.0088C16.7032 9.54138 17.8617 8.49872 19.4836 8.11256C26.2802 6.45203 37.8652 8.26702 36.5136 17.7281C36.166 20.2768 34.9689 22.4008 33.3084 24.293C31.1459 26.7258 28.5972 28.4636 25.6623 29.5835C25.7009 29.6607 25.7395 29.7379 25.7781 29.8152C26.2415 30.5875 27.4773 31.6688 28.2496 32.0936C29.6398 32.8273 31.0686 33.3293 32.6905 33.2135C33.6946 33.1748 34.6986 33.1362 35.7026 33.1362C37.1701 33.1362 37.9038 33.8699 37.981 35.376Z" fill="white"/>
<path d="M37.981 35.376L44.7386 35.143L44.7367 35.0863L44.7338 35.0297L37.981 35.376ZM37.3632 38.6584L43.6155 41.2329L43.6617 41.1207L43.7039 41.0068L37.3632 38.6584ZM36.3977 40.5893L30.6639 37.0056L30.6562 37.0179L30.6486 37.0302L36.3977 40.5893ZM34.2352 42.3656L32.7684 35.765L32.7416 35.771L32.7148 35.7772L34.2352 42.3656ZM32.7678 42.4042L34.2882 35.8158L34.2674 35.811L34.2466 35.8063L32.7678 42.4042ZM27.207 38.2336L32.382 33.8819L32.3573 33.8525L32.3323 33.8234L27.207 38.2336ZM23.3839 32.8659L29.2028 29.4221L29.1611 29.3517L29.1177 29.2823L23.3839 32.8659ZM22.3412 31.0123L28.389 27.9884L28.2007 27.6119L27.9672 27.2616L22.3412 31.0123ZM22.1482 30.5875L28.1959 27.5636L25.5733 22.3184L20.01 24.1729L22.1482 30.5875ZM21.762 30.6647V23.9031H21.0925L20.4359 24.0344L21.762 30.6647ZM19.9856 30.9737L18.7395 24.3279L14.9866 25.0316L13.6511 28.6088L19.9856 30.9737ZM12.9188 37.6544L14.7576 31.1476L14.6353 31.1131L14.5118 31.0831L12.9188 37.6544ZM10.1383 35.1443L16.6094 33.1834L16.5824 33.0943L16.553 33.0061L10.1383 35.1443ZM11.2968 30.9351L6.34806 26.3276L6.34198 26.3341L11.2968 30.9351ZM14.7724 28.0002L20.1816 32.0572L20.2182 32.0084L20.2539 31.959L14.7724 28.0002ZM17.7072 20.7789L24.3925 21.7918L24.3968 21.7634L24.4009 21.7351L17.7072 20.7789ZM17.7845 19.9679L24.4781 20.9241L24.5208 20.625L24.5367 20.3233L17.7845 19.9679ZM18.9044 17.9212L15.2311 12.2444L15.1165 12.3185L15.0051 12.3972L18.9044 17.9212ZM21.0283 18.1529L16.5999 23.2626L16.7004 23.3497L16.8043 23.4328L21.0283 18.1529ZM21.6848 21.3581L28.3394 22.5559L28.3411 22.5467L21.6848 21.3581ZM20.6035 27.2665L13.9577 26.0204L12.2749 34.9951L21.3502 33.9867L20.6035 27.2665ZM21.1055 27.1892L22.7454 33.749L23.1467 33.6486L23.5328 33.5002L21.1055 27.1892ZM26.6277 24.0227L22.3791 18.7625L22.3692 18.7706L22.3593 18.7786L26.6277 24.0227ZM29.1378 21.2036L23.404 17.62L23.3531 17.7014L23.3046 17.7842L29.1378 21.2036ZM29.8715 19.2342L36.596 19.942L36.6001 19.9023L36.6039 19.8625L29.8715 19.2342ZM23.9631 15.6042L23.4898 8.85919L23.4749 8.86024L23.4599 8.86135L23.9631 15.6042ZM16.5873 17.535L19.3335 23.7139L19.4324 23.6699L19.5298 23.6229L16.5873 17.535ZM15.5061 17.8054V11.0438H15.3672L15.2284 11.0495L15.5061 17.8054ZM16.0467 11.0088L22.1796 13.8562L22.1995 13.8133L22.2188 13.77L16.0467 11.0088ZM19.4836 8.11256L21.0497 14.6903L21.0691 14.6857L21.0884 14.681L19.4836 8.11256ZM36.5136 17.7281L29.8199 16.7719L29.8169 16.7932L29.814 16.8145L36.5136 17.7281ZM33.3084 24.293L38.3621 28.7851L38.3764 28.7691L38.3906 28.7529L33.3084 24.293ZM25.6623 29.5835L23.2517 23.2662L16.275 25.9283L19.6145 32.6073L25.6623 29.5835ZM25.7781 29.8152L19.7304 32.8391L19.8465 33.0713L19.9801 33.294L25.7781 29.8152ZM28.2496 32.0936L24.9911 38.0182L25.0421 38.0463L25.0936 38.0734L28.2496 32.0936ZM32.6905 33.2135L32.4307 26.4568L32.3196 26.4611L32.2088 26.469L32.6905 33.2135ZM37.981 35.376L31.2234 35.609C31.2214 35.5513 31.2298 35.5776 31.2033 35.7089C31.1766 35.8417 31.1228 36.039 31.0225 36.31L37.3632 38.6584L43.7039 41.0068C44.259 39.5079 44.8187 37.4646 44.7386 35.143L37.981 35.376ZM37.3632 38.6584L31.1109 36.0839C30.9205 36.5461 30.7762 36.8259 30.6639 37.0056L36.3977 40.5893L42.1316 44.1729C42.7916 43.1169 43.2651 42.0837 43.6155 41.2329L37.3632 38.6584ZM36.3977 40.5893L30.6486 37.0302C30.5444 37.1985 30.6556 36.976 30.9882 36.6757C31.3923 36.3109 32.0055 35.9346 32.7684 35.765L34.2352 42.3656L35.702 48.9662C39.4821 48.1262 41.3688 45.4052 42.1469 44.1483L36.3977 40.5893ZM34.2352 42.3656L32.7148 35.7772C32.7411 35.7711 32.934 35.7275 33.2312 35.7156C33.5497 35.7029 33.9129 35.7292 34.2882 35.8158L32.7678 42.4042L31.2474 48.9927C33.079 49.4154 34.6447 49.2104 35.7556 48.9541L34.2352 42.3656ZM32.7678 42.4042L34.2466 35.8063C34.5387 35.8718 34.4569 35.9399 33.9826 35.5491C33.5268 35.1737 33.008 34.6263 32.382 33.8819L27.207 38.2336L22.0319 42.5854C23.3552 44.1591 26.5616 47.9426 31.2889 49.0022L32.7678 42.4042ZM27.207 38.2336L32.3323 33.8234C31.1928 32.4991 30.1454 31.0147 29.2028 29.4221L23.3839 32.8659L17.565 36.3097C18.8622 38.5015 20.3634 40.6471 22.0816 42.6438L27.207 38.2336ZM23.3839 32.8659L29.1177 29.2823C28.8389 28.8361 28.5972 28.4047 28.389 27.9884L22.3412 31.0123L16.2935 34.0362C16.7032 34.8556 17.1566 35.66 17.6501 36.4495L23.3839 32.8659ZM22.3412 31.0123L27.9672 27.2616C28.1838 27.5864 28.3244 27.8641 28.4023 28.029C28.4426 28.1143 28.4727 28.1833 28.4912 28.227C28.5094 28.2698 28.5213 28.2998 28.5227 28.3032C28.5236 28.3054 28.5235 28.3051 28.5207 28.2981C28.5194 28.2948 28.5127 28.2778 28.5078 28.2656C28.4966 28.2373 28.4758 28.185 28.4503 28.1233C28.3994 28 28.314 27.7997 28.1959 27.5636L22.1482 30.5875L16.1004 33.6114C16.021 33.4526 15.9693 33.3295 15.9498 33.2822C15.94 33.2586 15.9343 33.2439 15.9378 33.2529C15.9404 33.2593 15.941 33.2608 15.947 33.276C15.9514 33.2873 15.9586 33.3052 15.9667 33.3256C15.9941 33.3942 16.0701 33.5837 16.1764 33.8085C16.2857 34.0398 16.4601 34.3802 16.7153 34.763L22.3412 31.0123ZM22.1482 30.5875L20.01 24.1729C20.1484 24.1267 20.3237 24.0751 20.5383 24.0291C20.6496 24.0052 20.8013 23.9765 20.9857 23.9526C21.1629 23.9296 21.4307 23.9031 21.762 23.9031V30.6647V37.4264C22.9921 37.4264 23.9833 37.1032 24.2863 37.0021L22.1482 30.5875ZM21.762 30.6647L20.4359 24.0344C20.275 24.0666 20.0911 24.098 19.7944 24.1467C19.5279 24.1904 19.1415 24.2525 18.7395 24.3279L19.9856 30.9737L21.2317 37.6195C21.4476 37.579 21.6598 37.5446 21.9821 37.4918C22.2744 37.4438 22.6697 37.3787 23.0881 37.295L21.762 30.6647ZM19.9856 30.9737L13.6511 28.6088C13.4531 29.1391 13.2049 29.7226 12.9217 30.2691C12.6294 30.8331 12.3657 31.2293 12.1717 31.4635C11.9538 31.7266 12.0247 31.5442 12.4732 31.3316C12.7258 31.2119 13.0858 31.0899 13.5312 31.0457C13.9851 31.0007 14.408 31.0488 14.7576 31.1476L12.9188 37.6544L11.0799 44.1611C16.7283 45.7574 20.7594 42.2954 22.5863 40.0898C24.4888 37.7928 25.6838 35.0432 26.3202 33.3386L19.9856 30.9737ZM12.9188 37.6544L14.5118 31.0831C15.2026 31.2506 16.1991 31.8295 16.6094 33.1834L10.1383 35.1443L3.66732 37.1052C4.84993 41.0078 8.08619 43.4403 11.3257 44.2257L12.9188 37.6544ZM10.1383 35.1443L16.553 33.0061C16.8286 33.8331 16.7226 34.5246 16.6089 34.8899C16.5044 35.2256 16.363 35.4162 16.2517 35.536L11.2968 30.9351L6.34198 26.3341C4.33332 28.4973 2.16938 32.6195 3.72372 37.2825L10.1383 35.1443ZM11.2968 30.9351L16.2456 35.5425C16.1736 35.6199 16.1019 35.6527 16.9757 35.0363C17.5974 34.5977 19.0136 33.6146 20.1816 32.0572L14.7724 28.0002L9.36307 23.9432C9.60435 23.6215 9.80408 23.5459 9.18042 23.9859C8.96856 24.1353 8.48088 24.4712 8.04289 24.8061C7.56555 25.171 6.95725 25.6733 6.34807 26.3276L11.2968 30.9351ZM14.7724 28.0002L20.2539 31.959C22.4043 28.9815 23.8489 25.3795 24.3925 21.7918L17.7072 20.7789L11.0219 19.7659C10.7932 21.2756 10.1525 22.8483 9.29086 24.0413L14.7724 28.0002ZM17.7072 20.7789L24.4009 21.7351C24.4325 21.5141 24.4521 21.3216 24.465 21.1774C24.4772 21.0402 24.4862 20.9128 24.4903 20.8551C24.4958 20.7776 24.4965 20.7699 24.4964 20.772C24.4955 20.781 24.4904 20.8383 24.4781 20.9241L17.7845 19.9679L11.0908 19.0117C11.0592 19.2326 11.0396 19.4251 11.0267 19.5693C11.0145 19.7066 11.0055 19.834 11.0014 19.8916C10.9959 19.9691 10.9952 19.9769 10.9953 19.9748C10.9961 19.9658 11.0013 19.9084 11.0136 19.8226L17.7072 20.7789ZM17.7845 19.9679L24.5367 20.3233C24.4979 21.0602 24.2939 21.6219 24.0788 22.0251C23.8608 22.4338 23.475 22.9714 22.8036 23.4452L18.9044 17.9212L15.0051 12.3972C12.5398 14.1374 11.172 16.9561 11.0322 19.6125L17.7845 19.9679ZM18.9044 17.9212L22.5776 23.5981C21.3808 24.3725 20.1133 24.5216 19.1354 24.3962C18.1853 24.2744 17.3122 23.8799 16.5999 23.2626L21.0283 18.1529L25.4567 13.0432C23.1133 11.0123 18.9378 9.84593 15.2311 12.2444L18.9044 17.9212ZM21.0283 18.1529L16.8043 23.4328C15.4976 22.3875 15.1483 21.0416 15.0764 20.4363C15.0214 19.9725 15.1002 19.7677 15.0284 20.1695L21.6848 21.3581L28.3411 22.5467C28.4624 21.8672 28.6957 20.446 28.5055 18.843C28.2985 17.0985 27.5244 14.6907 25.2522 12.873L21.0283 18.1529ZM21.6848 21.3581L15.0301 20.1603C14.6836 22.0853 14.3008 24.1906 13.9577 26.0204L20.6035 27.2665L27.2493 28.5126C27.6013 26.6351 27.9908 24.4925 28.3394 22.5559L21.6848 21.3581ZM20.6035 27.2665L21.3502 33.9867C21.7304 33.9445 22.1178 33.9059 22.7454 33.749L21.1055 27.1892L19.4656 20.6295C19.4412 20.6356 19.4445 20.6348 19.4516 20.633C19.4621 20.6305 19.4965 20.6221 19.544 20.6116C19.5948 20.6003 19.6549 20.5877 19.7221 20.5751C19.7889 20.5625 19.8485 20.5526 19.8988 20.5449C19.987 20.5313 20.0435 20.5251 20.0168 20.5282C19.9923 20.5311 19.9526 20.5356 19.8568 20.5462L20.6035 27.2665ZM21.1055 27.1892L23.5328 33.5002C26.1496 32.4937 28.6363 31.1061 30.8961 29.2667L26.6277 24.0227L22.3593 18.7786C21.2981 19.6424 20.0775 20.3401 18.6782 20.8783L21.1055 27.1892ZM26.6277 24.0227L30.8763 29.2828C32.3212 28.1158 33.792 26.6344 34.971 24.6231L29.1378 21.2036L23.3046 17.7842C23.1706 18.0127 22.9423 18.3076 22.3791 18.7625L26.6277 24.0227ZM29.1378 21.2036L34.8716 24.7873C35.598 23.6251 36.3771 22.0213 36.596 19.942L29.8715 19.2342L23.1471 18.5263C23.1758 18.2537 23.2424 18.0082 23.3169 17.8162C23.385 17.6407 23.4388 17.5642 23.404 17.62L29.1378 21.2036ZM29.8715 19.2342L36.6039 19.8625C37.1215 14.3161 33.1639 11.2721 30.6548 10.1254C28.2046 9.00558 25.4933 8.71859 23.4898 8.85919L23.9631 15.6042L24.4365 22.3492C24.4227 22.3502 24.4591 22.3472 24.539 22.351C24.6163 22.3547 24.7072 22.3634 24.8011 22.3782C25.0198 22.4127 25.0968 22.4539 25.0335 22.4249C25.0005 22.4099 24.494 22.1829 23.9795 21.5027C23.7051 21.1401 23.4511 20.6748 23.2906 20.1206C23.1294 19.5636 23.0986 19.0404 23.1392 18.6058L29.8715 19.2342ZM23.9631 15.6042L23.4599 8.86135C20.1108 9.11128 16.8 9.9223 13.6449 11.4472L16.5873 17.535L19.5298 23.6229C21.0087 22.908 22.6408 22.4833 24.4663 22.3471L23.9631 15.6042ZM16.5873 17.535L13.8412 11.3562C13.8453 11.3544 14.0187 11.2759 14.297 11.2007C14.5946 11.1203 15.0089 11.0438 15.5061 11.0438V17.8054V24.567C17.2783 24.567 18.6428 24.0208 19.3335 23.7139L16.5873 17.535ZM15.5061 17.8054L15.2284 11.0495C16.0161 11.0171 17.4824 11.1737 18.8881 12.2831C20.2699 13.3735 20.7675 14.7346 20.9337 15.4883C21.0894 16.1946 21.0333 16.6722 21.0279 16.7221C21.0175 16.8175 21.0127 16.7901 21.0603 16.6131C21.3001 15.7222 21.84 14.5876 22.1796 13.8562L16.0467 11.0088L9.91387 8.16142C9.75141 8.51135 8.6115 10.8329 8.00169 13.0989C7.74858 14.0394 7.23224 16.1534 7.72769 18.4003C8.01457 19.7013 8.74742 21.5074 10.5106 22.8988C12.2977 24.3091 14.2913 24.6226 15.7837 24.5613L15.5061 17.8054ZM16.0467 11.0088L22.2188 13.77C22.182 13.8523 22.0638 14.0659 21.8035 14.289C21.5331 14.5208 21.2479 14.6431 21.0497 14.6903L19.4836 8.11256L17.9175 1.53482C14.09 2.44613 11.3199 5.01683 9.87459 8.2476L16.0467 11.0088ZM19.4836 8.11256L21.0884 14.681C23.392 14.1182 26.5153 14.2177 28.5459 15.0289C29.4783 15.4014 29.7507 15.7491 29.7863 15.8015C29.798 15.8187 29.8152 15.8434 29.8325 15.9255C29.852 16.0177 29.8904 16.279 29.8199 16.7719L36.5136 17.7281L43.2072 18.6844C43.7557 14.8449 43.0243 11.2214 40.971 8.2001C39.0021 5.30308 36.2068 3.52691 33.5624 2.47057C28.4393 0.424081 22.3718 0.446429 17.8788 1.54415L19.4836 8.11256ZM36.5136 17.7281L29.814 16.8145C29.6945 17.6912 29.2835 18.6282 28.2262 19.8331L33.3084 24.293L38.3906 28.7529C40.6543 26.1733 42.6376 22.8625 43.2132 18.6417L36.5136 17.7281ZM33.3084 24.293L28.2547 19.8008C26.8186 21.4165 25.1784 22.531 23.2517 23.2662L25.6623 29.5835L28.0728 35.9008C32.0159 34.3962 35.4732 32.0352 38.3621 28.7851L33.3084 24.293ZM25.6623 29.5835L19.6145 32.6073C19.6531 32.6846 19.6918 32.7618 19.7304 32.8391L25.7781 29.8152L31.8259 26.7913C31.7873 26.7141 31.7487 26.6369 31.7101 26.5596L25.6623 29.5835ZM25.7781 29.8152L19.9801 33.294C20.7175 34.523 21.7132 35.5111 22.3575 36.095C23.047 36.7199 23.983 37.4638 24.9911 38.0182L28.2496 32.0936L31.5082 26.1689C31.602 26.2205 31.6559 26.2559 31.6669 26.2632C31.6808 26.2724 31.675 26.2691 31.6507 26.2509C31.6274 26.2335 31.595 26.2083 31.5561 26.1762C31.5175 26.1443 31.4775 26.1097 31.4386 26.0744C31.3995 26.039 31.3661 26.007 31.3396 25.9806C31.3267 25.9677 31.3166 25.9573 31.3093 25.9496C31.302 25.9419 31.2985 25.938 31.2987 25.9381C31.2987 25.9382 31.3038 25.9439 31.3134 25.9554C31.3228 25.9667 31.3387 25.9863 31.3598 26.014C31.3808 26.0414 31.4099 26.0808 31.445 26.1319C31.4799 26.1826 31.5249 26.251 31.5762 26.3364L25.7781 29.8152ZM28.2496 32.0936L25.0936 38.0734C27.0272 39.094 29.7704 40.2009 33.1723 39.9579L32.6905 33.2135L32.2088 26.469C32.2588 26.4655 32.2706 26.4786 32.184 26.4547C32.069 26.4229 31.832 26.3387 31.4056 26.1137L28.2496 32.0936ZM32.6905 33.2135L32.9504 39.9701C33.9762 39.9306 34.8503 39.8978 35.7026 39.8978V33.1362V26.3746C34.5469 26.3746 33.413 26.4191 32.4307 26.4568L32.6905 33.2135ZM35.7026 33.1362V39.8978C35.3647 39.8978 33.9287 39.8021 32.6129 38.5033C31.3439 37.2505 31.2378 35.9072 31.2283 35.7223L37.981 35.376L44.7338 35.0297C44.647 33.3387 44.1354 30.8755 42.1134 28.8794C40.0446 26.8372 37.5081 26.3746 35.7026 26.3746V33.1362Z" fill="white" mask="url(#path-2-outside-1_2026_309)"/>
<path d="M27.9648 47.1843C27.2892 47.7271 26.3221 47.7271 25.6465 47.1843L25.5068 47.0603L6.27344 28.1579C5.58061 27.477 5.53731 26.388 6.14356 25.656L6.27344 25.5144L25.5068 6.613C26.2279 5.90432 27.3834 5.90432 28.1045 6.613L47.3379 25.5144C48.077 26.2407 48.077 27.4316 47.3379 28.1579L28.1045 47.0603L27.9648 47.1843Z" fill="#B87333" stroke="#89490D" stroke-width="2.35987"/>
<mask id="path-5-outside-2_2026_309" maskUnits="userSpaceOnUse" x="7.08902" y="4.73161" width="34" height="41" fill="black">
<rect fill="white" x="7.08902" y="4.73161" width="34" height="41"/>
<path d="M37.981 35.376C38.0196 36.4959 37.7493 37.6158 37.3632 38.6584C37.0928 39.3149 36.7839 39.9714 36.3977 40.5893C35.8957 41.4002 35.2779 42.1339 34.2352 42.3656C33.7332 42.4815 33.2698 42.5201 32.7678 42.4042C30.528 41.9022 28.6358 39.9328 27.207 38.2336C25.7781 36.5731 24.5038 34.7581 23.3839 32.8659C22.9977 32.248 22.6502 31.6302 22.3412 31.0123C22.264 30.8964 22.2254 30.742 22.1482 30.5875C22.0323 30.6261 21.8778 30.6647 21.762 30.6647C21.1827 30.7806 20.6035 30.8578 19.9856 30.9737C18.9044 33.8699 16.4715 38.6584 12.9188 37.6544C11.6444 37.3454 10.5245 36.4186 10.1383 35.1443C9.63633 33.6382 10.2928 32.0163 11.2968 30.9351C12.3395 29.8152 13.8456 29.2359 14.7724 28.0002C16.2784 25.9149 17.3211 23.3276 17.7072 20.7789C17.7458 20.5085 17.7458 20.2382 17.7845 19.9679C17.8231 19.2342 18.2479 18.3846 18.9044 17.9212C19.5608 17.4964 20.449 17.6509 21.0283 18.1529C21.9937 18.9253 21.8778 20.2768 21.6848 21.3581C21.3372 23.2889 20.951 25.4129 20.6035 27.2665C20.951 27.2279 20.951 27.2279 21.1055 27.1892C23.1136 26.4169 24.9672 25.3742 26.6277 24.0227C27.6317 23.2117 28.4813 22.3235 29.1378 21.2036C29.524 20.5858 29.7943 19.9679 29.8715 19.2342C30.1418 16.3379 26.1643 15.4497 23.9631 15.6042C21.3758 15.7973 18.9044 16.4152 16.5873 17.535C16.2398 17.6895 15.8922 17.8054 15.5061 17.8054C12.6871 17.9212 15.5447 12.0901 16.0467 11.0088C16.7032 9.54138 17.8617 8.49872 19.4836 8.11256C26.2802 6.45203 37.8652 8.26702 36.5136 17.7281C36.166 20.2768 34.9689 22.4008 33.3084 24.293C31.1459 26.7258 28.5972 28.4636 25.6623 29.5835C25.7009 29.6607 25.7395 29.7379 25.7781 29.8152C26.2415 30.5875 27.4773 31.6688 28.2496 32.0936C29.6398 32.8273 31.0686 33.3293 32.6905 33.2135C33.6946 33.1748 34.6986 33.1362 35.7026 33.1362C37.1701 33.1362 37.9038 33.8699 37.981 35.376Z"/>
</mask>
<path d="M37.981 35.376C38.0196 36.4959 37.7493 37.6158 37.3632 38.6584C37.0928 39.3149 36.7839 39.9714 36.3977 40.5893C35.8957 41.4002 35.2779 42.1339 34.2352 42.3656C33.7332 42.4815 33.2698 42.5201 32.7678 42.4042C30.528 41.9022 28.6358 39.9328 27.207 38.2336C25.7781 36.5731 24.5038 34.7581 23.3839 32.8659C22.9977 32.248 22.6502 31.6302 22.3412 31.0123C22.264 30.8964 22.2254 30.742 22.1482 30.5875C22.0323 30.6261 21.8778 30.6647 21.762 30.6647C21.1827 30.7806 20.6035 30.8578 19.9856 30.9737C18.9044 33.8699 16.4715 38.6584 12.9188 37.6544C11.6444 37.3454 10.5245 36.4186 10.1383 35.1443C9.63633 33.6382 10.2928 32.0163 11.2968 30.9351C12.3395 29.8152 13.8456 29.2359 14.7724 28.0002C16.2784 25.9149 17.3211 23.3276 17.7072 20.7789C17.7458 20.5085 17.7458 20.2382 17.7845 19.9679C17.8231 19.2342 18.2479 18.3846 18.9044 17.9212C19.5608 17.4964 20.449 17.6509 21.0283 18.1529C21.9937 18.9253 21.8778 20.2768 21.6848 21.3581C21.3372 23.2889 20.951 25.4129 20.6035 27.2665C20.951 27.2279 20.951 27.2279 21.1055 27.1892C23.1136 26.4169 24.9672 25.3742 26.6277 24.0227C27.6317 23.2117 28.4813 22.3235 29.1378 21.2036C29.524 20.5858 29.7943 19.9679 29.8715 19.2342C30.1418 16.3379 26.1643 15.4497 23.9631 15.6042C21.3758 15.7973 18.9044 16.4152 16.5873 17.535C16.2398 17.6895 15.8922 17.8054 15.5061 17.8054C12.6871 17.9212 15.5447 12.0901 16.0467 11.0088C16.7032 9.54138 17.8617 8.49872 19.4836 8.11256C26.2802 6.45203 37.8652 8.26702 36.5136 17.7281C36.166 20.2768 34.9689 22.4008 33.3084 24.293C31.1459 26.7258 28.5972 28.4636 25.6623 29.5835C25.7009 29.6607 25.7395 29.7379 25.7781 29.8152C26.2415 30.5875 27.4773 31.6688 28.2496 32.0936C29.6398 32.8273 31.0686 33.3293 32.6905 33.2135C33.6946 33.1748 34.6986 33.1362 35.7026 33.1362C37.1701 33.1362 37.9038 33.8699 37.981 35.376Z" fill="white"/>
<path d="M37.981 35.376L40.3395 35.2947L40.3388 35.2749L40.3378 35.2551L37.981 35.376ZM37.3632 38.6584L39.5453 39.5569L39.5614 39.5178L39.5761 39.478L37.3632 38.6584ZM36.3977 40.5893L34.3966 39.3385L34.3912 39.3471L36.3977 40.5893ZM34.2352 42.3656L33.7233 40.0619L33.7139 40.064L33.7046 40.0662L34.2352 42.3656ZM32.7678 42.4042L33.2984 40.1048L33.2912 40.1031L33.2839 40.1015L32.7678 42.4042ZM27.207 38.2336L29.0131 36.7148L29.0045 36.7046L28.9958 36.6944L27.207 38.2336ZM23.3839 32.8659L25.4147 31.664L25.4002 31.6394L25.3851 31.6152L23.3839 32.8659ZM22.3412 31.0123L24.452 29.9569L24.3863 29.8255L24.3048 29.7033L22.3412 31.0123ZM22.1482 30.5875L24.2589 29.5321L23.3436 27.7015L21.4019 28.3487L22.1482 30.5875ZM21.762 30.6647V28.3049H21.5283L21.2992 28.3507L21.762 30.6647ZM19.9856 30.9737L19.5507 28.6542L18.2409 28.8998L17.7748 30.1483L19.9856 30.9737ZM12.9188 37.6544L13.5605 35.3835L13.5178 35.3714L13.4747 35.3609L12.9188 37.6544ZM10.1383 35.1443L12.3968 34.4599L12.3874 34.4288L12.3771 34.398L10.1383 35.1443ZM11.2968 30.9351L9.56967 29.327L9.56755 29.3293L11.2968 30.9351ZM14.7724 28.0002L16.6603 29.4161L16.673 29.3991L16.6855 29.3819L14.7724 28.0002ZM17.7072 20.7789L20.0405 21.1324L20.042 21.1225L20.0434 21.1126L17.7072 20.7789ZM17.7845 19.9679L20.1206 20.3016L20.1355 20.1972L20.1411 20.0919L17.7845 19.9679ZM18.9044 17.9212L17.6223 15.9399L17.5824 15.9658L17.5435 15.9933L18.9044 17.9212ZM21.0283 18.1529L19.4827 19.9362L19.5178 19.9667L19.5541 19.9957L21.0283 18.1529ZM21.6848 21.3581L24.0073 21.7762L24.0079 21.7729L21.6848 21.3581ZM20.6035 27.2665L18.284 26.8316L17.6967 29.9638L20.8641 29.6119L20.6035 27.2665ZM21.1055 27.1892L21.6779 29.4787L21.8179 29.4436L21.9527 29.3918L21.1055 27.1892ZM26.6277 24.0227L25.1449 22.1868L25.138 22.1924L26.6277 24.0227ZM29.1378 21.2036L27.1366 19.9529L27.1189 19.9813L27.1019 20.0102L29.1378 21.2036ZM29.8715 19.2342L32.2184 19.4812L32.2199 19.4674L32.2212 19.4535L29.8715 19.2342ZM23.9631 15.6042L23.7979 13.2501L23.7875 13.2509L23.9631 15.6042ZM16.5873 17.535L17.5458 19.6915L17.5803 19.6762L17.6143 19.6598L16.5873 17.535ZM15.5061 17.8054V15.4455H15.4576L15.4092 15.4475L15.5061 17.8054ZM16.0467 11.0088L18.1871 12.0026L18.1941 11.9876L18.2008 11.9725L16.0467 11.0088ZM19.4836 8.11256L20.0302 10.4083L20.0437 10.405L19.4836 8.11256ZM36.5136 17.7281L34.1774 17.3944L34.1764 17.4018L34.1754 17.4093L36.5136 17.7281ZM33.3084 24.293L35.0722 25.8608L35.0772 25.8552L35.0821 25.8495L33.3084 24.293ZM25.6623 29.5835L24.821 27.3787L22.386 28.3078L23.5515 30.6388L25.6623 29.5835ZM25.7781 29.8152L23.6674 30.8706L23.7079 30.9516L23.7546 31.0293L25.7781 29.8152ZM28.2496 32.0936L27.1123 34.1613L27.1301 34.1711L27.1481 34.1806L28.2496 32.0936ZM32.6905 33.2135L32.5998 30.8553L32.5611 30.8568L32.5224 30.8596L32.6905 33.2135ZM37.981 35.376L35.6226 35.4573C35.6467 36.1578 35.4774 36.9554 35.1502 37.8388L37.3632 38.6584L39.5761 39.478C40.0213 38.2761 40.3926 36.834 40.3395 35.2947L37.981 35.376ZM37.3632 38.6584L35.181 37.7599C34.9387 38.3486 34.6872 38.8736 34.3966 39.3385L36.3977 40.5893L38.3989 41.84C38.8807 41.0692 39.247 40.2812 39.5453 39.5569L37.3632 38.6584ZM36.3977 40.5893L34.3912 39.3471C34.1915 39.6698 34.048 39.8436 33.9379 39.943C33.8526 40.0199 33.7964 40.0457 33.7233 40.0619L34.2352 42.3656L34.7471 44.6693C36.7452 44.2253 37.8059 42.798 38.4043 41.8314L36.3977 40.5893ZM34.2352 42.3656L33.7046 40.0662C33.5504 40.1018 33.4605 40.1117 33.4072 40.1138C33.3612 40.1157 33.3308 40.1123 33.2984 40.1048L32.7678 42.4042L32.2371 44.7037C33.2032 44.9266 34.0513 44.83 34.7658 44.6651L34.2352 42.3656ZM32.7678 42.4042L33.2839 40.1015C31.9123 39.7941 30.4788 38.4577 29.0131 36.7148L27.207 38.2336L25.4008 39.7524C26.7928 41.4078 29.1437 44.0104 32.2516 44.707L32.7678 42.4042ZM27.207 38.2336L28.9958 36.6944C27.6679 35.1513 26.4728 33.4516 25.4147 31.664L23.3839 32.8659L21.353 34.0678C22.5348 36.0646 23.8883 37.995 25.4181 39.7728L27.207 38.2336ZM23.3839 32.8659L25.3851 31.6152C25.0363 31.0572 24.7257 30.5045 24.452 29.9569L22.3412 31.0123L20.2305 32.0677C20.5746 32.7559 20.9591 33.4388 21.3827 34.1166L23.3839 32.8659ZM22.3412 31.0123L24.3048 29.7033C24.3678 29.7978 24.4059 29.8743 24.4228 29.9102C24.4388 29.9439 24.4457 29.9629 24.4358 29.938C24.4299 29.9234 24.4273 29.9166 24.4164 29.8889C24.4076 29.8669 24.3954 29.8364 24.3815 29.8025C24.3535 29.7347 24.3127 29.6397 24.2589 29.5321L22.1482 30.5875L20.0374 31.6429C20.0223 31.6126 20.0152 31.5948 20.0186 31.603C20.0287 31.6273 20.0254 31.6203 20.0536 31.6908C20.0726 31.7383 20.1085 31.8272 20.1559 31.9273C20.2042 32.0297 20.2761 32.1689 20.3777 32.3213L22.3412 31.0123ZM22.1482 30.5875L21.4019 28.3487C21.4125 28.3452 21.4297 28.3397 21.4606 28.3331C21.4775 28.3295 21.5084 28.3234 21.5515 28.3178C21.5922 28.3125 21.6652 28.3049 21.762 28.3049V30.6647V33.0246C22.2667 33.0246 22.7132 32.8867 22.8944 32.8263L22.1482 30.5875ZM21.762 30.6647L21.2992 28.3507C21.0545 28.3996 20.8017 28.442 20.5065 28.4904C20.2218 28.5371 19.8921 28.5902 19.5507 28.6542L19.9856 30.9737L20.4205 33.2931C20.697 33.2413 20.9659 33.1979 21.2701 33.148C21.5637 33.0999 21.8903 33.0457 22.2248 32.9788L21.762 30.6647ZM19.9856 30.9737L17.7748 30.1483C17.2676 31.5069 16.4995 33.139 15.5616 34.2713C14.5973 35.4355 13.9855 35.5036 13.5605 35.3835L12.9188 37.6544L12.277 39.9253C15.4047 40.8092 17.7858 38.9851 19.1964 37.282C20.6334 35.547 21.6224 33.3367 22.1964 31.7991L19.9856 30.9737ZM12.9188 37.6544L13.4747 35.3609C12.8863 35.2183 12.505 34.817 12.3968 34.4599L10.1383 35.1443L7.87989 35.8287C8.54402 38.0203 10.4025 39.4726 12.3628 39.9478L12.9188 37.6544ZM10.1383 35.1443L12.3771 34.398C12.2424 33.9938 12.3727 33.2445 13.0261 32.5408L11.2968 30.9351L9.56755 29.3293C8.21289 30.7882 7.03029 33.2827 7.89957 35.8905L10.1383 35.1443ZM11.2968 30.9351L13.024 32.5431C13.3383 32.2056 13.728 31.9405 14.4384 31.4394C15.0607 31.0004 15.9509 30.3619 16.6603 29.4161L14.7724 28.0002L12.8845 26.5843C12.667 26.8742 12.3408 27.1432 11.7177 27.5827C11.1827 27.9602 10.2981 28.5446 9.56967 29.327L11.2968 30.9351ZM14.7724 28.0002L16.6855 29.3819C18.4164 26.9852 19.5994 24.0437 20.0405 21.1324L17.7072 20.7789L15.374 20.4253C15.0428 22.6114 14.1404 24.8446 12.8593 26.6185L14.7724 28.0002ZM17.7072 20.7789L20.0434 21.1126C20.0764 20.8813 20.091 20.6632 20.0997 20.5415C20.1103 20.3929 20.115 20.3407 20.1206 20.3016L17.7845 19.9679L15.4483 19.6342C15.4153 19.8654 15.4007 20.0835 15.392 20.2052C15.3814 20.3538 15.3767 20.406 15.3711 20.4451L17.7072 20.7789ZM17.7845 19.9679L20.1411 20.0919C20.1402 20.1082 20.1391 20.0981 20.1487 20.0653C20.1579 20.0336 20.1733 19.9943 20.1949 19.9537C20.2166 19.9131 20.2389 19.8818 20.2564 19.8611C20.2742 19.8402 20.2795 19.8391 20.2652 19.8492L18.9044 17.9212L17.5435 15.9933C16.2557 16.9023 15.5018 18.4391 15.4279 19.8439L17.7845 19.9679ZM18.9044 17.9212L20.1864 19.9025C19.9823 20.0345 19.7914 20.0426 19.6952 20.0302C19.6087 20.0191 19.5428 19.9883 19.4827 19.9362L21.0283 18.1529L22.5738 16.3696C21.3789 15.334 19.3434 14.8263 17.6223 15.9399L18.9044 17.9212ZM21.0283 18.1529L19.5541 19.9957C19.5037 19.9554 19.4623 19.8994 19.4405 19.8543C19.4241 19.8203 19.4372 19.8306 19.4475 19.9177C19.458 20.0064 19.4615 20.1387 19.4468 20.3243C19.4323 20.5084 19.4029 20.7123 19.3616 20.9433L21.6848 21.3581L24.0079 21.7729C24.1131 21.1838 24.2448 20.2919 24.1344 19.3616C24.0182 18.382 23.6097 17.196 22.5025 16.3102L21.0283 18.1529ZM21.6848 21.3581L19.3622 20.94C19.015 22.8689 18.63 24.9863 18.284 26.8316L20.6035 27.2665L22.9229 27.7014C23.2721 25.8394 23.6594 23.709 24.0073 21.7762L21.6848 21.3581ZM20.6035 27.2665L20.8641 29.6119C21.2231 29.572 21.3583 29.5585 21.6779 29.4787L21.1055 27.1892L20.5332 24.8998C20.5121 24.9051 20.5022 24.9075 20.4947 24.9094C20.4882 24.911 20.4911 24.9102 20.4989 24.9085C20.5223 24.9033 20.548 24.8985 20.5681 24.8954C20.5784 24.8938 20.5738 24.8948 20.5311 24.8998C20.4892 24.9048 20.4329 24.911 20.3429 24.921L20.6035 27.2665ZM21.1055 27.1892L21.9527 29.3918C24.1732 28.5378 26.2477 27.3747 28.1174 25.8529L26.6277 24.0227L25.138 22.1924C23.6866 23.3738 22.054 24.296 20.2584 24.9867L21.1055 27.1892ZM26.6277 24.0227L28.1105 25.8585C29.2684 24.9233 30.3348 23.8281 31.1736 22.3971L29.1378 21.2036L27.1019 20.0102C26.6278 20.819 25.9951 21.5001 25.1449 22.1868L26.6277 24.0227ZM29.1378 21.2036L31.139 22.4544C31.6439 21.6465 32.0918 20.6845 32.2184 19.4812L29.8715 19.2342L27.5246 18.9871C27.4968 19.2513 27.4041 19.525 27.1366 19.9529L29.1378 21.2036ZM29.8715 19.2342L32.2212 19.4535C32.4898 16.575 30.5052 14.8967 28.8251 14.1288C27.1655 13.3704 25.2136 13.1508 23.7979 13.2501L23.9631 15.6042L24.1283 17.9583C24.9138 17.9032 26.0513 18.0505 26.8632 18.4215C27.2539 18.6001 27.4291 18.7668 27.4899 18.8471C27.5128 18.8774 27.5332 18.8928 27.5219 19.0149L29.8715 19.2342ZM23.9631 15.6042L23.7875 13.2509C20.9343 13.4638 18.1699 14.1491 15.5604 15.4103L16.5873 17.535L17.6143 19.6598C19.6388 18.6812 21.8173 18.1308 24.1388 17.9575L23.9631 15.6042ZM16.5873 17.535L15.6289 15.3786C15.5172 15.4282 15.4646 15.4448 15.4455 15.45C15.4331 15.4533 15.4582 15.4455 15.5061 15.4455V17.8054V20.1652C16.376 20.1652 17.0785 19.8992 17.5458 19.6915L16.5873 17.535ZM15.5061 17.8054L15.4092 15.4475C15.4547 15.4456 15.7948 15.4492 16.1613 15.7384C16.5194 16.0211 16.6165 16.3512 16.6352 16.4362C16.6453 16.4821 16.6116 16.2057 16.8098 15.4693C17.17 14.1308 17.9052 12.6098 18.1871 12.0026L16.0467 11.0088L13.9063 10.015C13.6862 10.4891 12.7416 12.4243 12.2522 14.2428C12.0256 15.0848 11.7747 16.312 12.0262 17.4525C12.1656 18.0847 12.4979 18.8599 13.2374 19.4434C13.9853 20.0336 14.8527 20.1941 15.603 20.1632L15.5061 17.8054ZM16.0467 11.0088L18.2008 11.9725C18.582 11.1205 19.1781 10.6111 20.0302 10.4083L19.4836 8.11256L18.937 5.81686C16.5453 6.38631 14.8244 7.96226 13.8926 10.0451L16.0467 11.0088ZM19.4836 8.11256L20.0437 10.405C23.0599 9.66809 27.1415 9.72798 30.1787 10.9412C31.6684 11.5363 32.762 12.349 33.4268 13.3273C34.0622 14.2622 34.4418 15.5436 34.1774 17.3944L36.5136 17.7281L38.8497 18.0619C39.2611 15.1821 38.6995 12.6888 37.3304 10.6743C35.9908 8.70321 34.0167 7.39199 31.9296 6.55824C27.813 4.91385 22.7039 4.89651 18.9235 5.82011L19.4836 8.11256ZM36.5136 17.7281L34.1754 17.4093C33.9074 19.3744 32.9847 21.0841 31.5347 22.7364L33.3084 24.293L35.0821 25.8495C36.9532 23.7174 38.4247 21.1793 38.8518 18.047L36.5136 17.7281ZM33.3084 24.293L31.5446 22.7252C29.6356 24.8728 27.404 26.393 24.821 27.3787L25.6623 29.5835L26.5036 31.7883C29.7903 30.5341 32.6561 28.5789 35.0722 25.8608L33.3084 24.293ZM25.6623 29.5835L23.5515 30.6388C23.5902 30.7161 23.6288 30.7933 23.6674 30.8706L25.7781 29.8152L27.8889 28.7598C27.8503 28.6826 27.8116 28.6054 27.773 28.5281L25.6623 29.5835ZM25.7781 29.8152L23.7546 31.0293C24.1628 31.7097 24.7868 32.3562 25.3133 32.8333C25.8557 33.3248 26.5091 33.8296 27.1123 34.1613L28.2496 32.0936L29.3869 30.0258C29.2177 29.9328 28.8672 29.6845 28.4827 29.3361C28.0825 28.9733 27.8569 28.693 27.8017 28.601L25.7781 29.8152ZM28.2496 32.0936L27.1481 34.1806C28.728 35.0144 30.6155 35.7276 32.8587 35.5673L32.6905 33.2135L32.5224 30.8596C31.5217 30.9311 30.5516 30.6401 29.3511 30.0065L28.2496 32.0936ZM32.6905 33.2135L32.7812 35.5716C33.7929 35.5327 34.7515 35.4961 35.7026 35.4961V33.1362V30.7763C34.6457 30.7763 33.5963 30.817 32.5998 30.8553L32.6905 33.2135ZM35.7026 33.1362V35.4961C35.7886 35.4961 35.8478 35.5015 35.8842 35.5067C35.9203 35.5119 35.9299 35.5163 35.9191 35.5127C35.9076 35.5088 35.8772 35.4973 35.8356 35.4724C35.7933 35.4471 35.7482 35.4131 35.7053 35.3707C35.6625 35.3286 35.6311 35.287 35.6098 35.2528C35.5891 35.2194 35.5819 35.1995 35.5824 35.201C35.5832 35.2031 35.5913 35.226 35.6005 35.2759C35.6097 35.3259 35.6192 35.3982 35.6243 35.4968L37.981 35.376L40.3378 35.2551C40.2824 34.1747 39.9719 32.9506 39.021 32.0119C38.0539 31.0572 36.8104 30.7763 35.7026 30.7763V33.1362Z" fill="#89490D" mask="url(#path-5-outside-2_2026_309)"/>
</svg>
