<svg width="53" height="52" viewBox="0 0 53 52" fill="none" xmlns="http://www.w3.org/2000/svg">
<path d="M22.9926 5.88104C24.3198 3.34326 27.9954 3.34339 29.3227 5.88104L29.4477 6.14276L34.1137 16.9777L45.8598 18.0676C48.9896 18.3578 50.2553 22.2509 47.8939 24.3254L39.0307 32.1105L41.6244 43.6193C42.3153 46.6855 39.0038 49.0913 36.3012 47.4865L26.1576 41.4631L16.0141 47.4865C13.3115 49.0911 10.0001 46.6854 10.6908 43.6193L13.2846 32.1105L4.42227 24.3254C2.06081 22.2509 3.32567 18.3578 6.45547 18.0676L18.2006 16.9777L22.8676 6.14276L22.9926 5.88104Z" fill="url(#paint0_linear_2020_147)" stroke="white" stroke-width="6.06013"/>
<mask id="path-2-outside-1_2020_147" maskUnits="userSpaceOnUse" x="8.00417" y="6.11964" width="35" height="38" fill="black">
<rect fill="white" x="8.00417" y="6.11964" width="35" height="38"/>
<path d="M20.5928 29.2311V29.5544C20.5928 31.7205 21.6921 32.4964 25.41 32.4964C29.031 32.4964 30.001 31.6882 30.001 30.3626C30.001 28.9401 29.128 27.8732 24.2785 27.2266C16.6809 26.1597 14.5147 23.6056 14.5147 19.4996C14.5147 15.4583 17.8124 12.4193 24.9898 12.4193C32.7814 12.4193 35.6264 15.0381 35.6264 19.1763C35.6264 19.5966 35.5941 20.0493 35.5618 20.5342C34.8828 20.5019 33.8159 20.4695 32.7167 20.4695C31.6175 20.4695 30.4859 20.5019 29.807 20.5342C29.8393 20.3079 29.8393 20.0493 29.8393 19.8553C29.8393 18.4651 28.934 17.4952 24.7958 17.4952C21.6597 17.4952 20.7222 18.2711 20.7222 19.4673C20.7222 20.5665 21.3041 21.6658 26.4769 22.377C33.331 23.3469 35.9497 25.6424 35.9497 30.1363C35.9497 34.5332 32.846 37.5723 25.4424 37.5723C17.4245 37.5723 14.3208 35.0182 14.3208 30.6859C14.3208 30.1686 14.3531 29.6837 14.4177 29.1341C15.0967 29.2634 16.2282 29.328 17.3598 29.328C18.5884 29.328 19.7199 29.2957 20.5928 29.2311Z"/>
</mask>
<path d="M20.5928 29.2311V29.5544C20.5928 31.7205 21.6921 32.4964 25.41 32.4964C29.031 32.4964 30.001 31.6882 30.001 30.3626C30.001 28.9401 29.128 27.8732 24.2785 27.2266C16.6809 26.1597 14.5147 23.6056 14.5147 19.4996C14.5147 15.4583 17.8124 12.4193 24.9898 12.4193C32.7814 12.4193 35.6264 15.0381 35.6264 19.1763C35.6264 19.5966 35.5941 20.0493 35.5618 20.5342C34.8828 20.5019 33.8159 20.4695 32.7167 20.4695C31.6175 20.4695 30.4859 20.5019 29.807 20.5342C29.8393 20.3079 29.8393 20.0493 29.8393 19.8553C29.8393 18.4651 28.934 17.4952 24.7958 17.4952C21.6597 17.4952 20.7222 18.2711 20.7222 19.4673C20.7222 20.5665 21.3041 21.6658 26.4769 22.377C33.331 23.3469 35.9497 25.6424 35.9497 30.1363C35.9497 34.5332 32.846 37.5723 25.4424 37.5723C17.4245 37.5723 14.3208 35.0182 14.3208 30.6859C14.3208 30.1686 14.3531 29.6837 14.4177 29.1341C15.0967 29.2634 16.2282 29.328 17.3598 29.328C18.5884 29.328 19.7199 29.2957 20.5928 29.2311Z" fill="white"/>
<path d="M20.5928 29.2311H26.653V22.7054L20.1452 23.1875L20.5928 29.2311ZM24.2785 27.2266L23.4358 33.2278L23.4566 33.2308L23.4776 33.2335L24.2785 27.2266ZM35.5618 20.5342L35.2735 26.5875L41.2129 26.8703L41.6085 20.9373L35.5618 20.5342ZM29.807 20.5342L23.8078 19.6771L22.7707 26.9363L30.0952 26.5875L29.807 20.5342ZM26.4769 22.377L27.3261 16.3767L27.3143 16.375L27.3024 16.3734L26.4769 22.377ZM14.4177 29.1341L15.5517 23.181L9.15943 21.9634L8.39913 28.426L14.4177 29.1341ZM20.5928 29.2311H14.5327V29.5544H20.5928H26.653V29.2311H20.5928ZM20.5928 29.5544H14.5327C14.5327 31.7027 15.1607 34.944 18.3827 36.9688C20.7285 38.4429 23.5311 38.5565 25.41 38.5565V32.4964V26.4363C24.6552 26.4363 24.2644 26.3941 24.1062 26.3672C23.9317 26.3375 24.2917 26.3673 24.8317 26.7066C25.4888 27.1196 26.0643 27.7713 26.3959 28.5479C26.6727 29.1961 26.653 29.6391 26.653 29.5544H20.5928ZM25.41 32.4964V38.5565C27.3927 38.5565 29.8166 38.3841 31.8974 37.2832C33.0934 36.6504 34.2648 35.6657 35.0744 34.2268C35.8641 32.8232 36.0611 31.4285 36.0611 30.3626H30.0009H23.9408C23.9408 29.9595 24.0166 29.1629 24.5112 28.2837C25.0258 27.3691 25.7284 26.835 26.2293 26.57C26.6608 26.3417 26.8973 26.3333 26.693 26.3661C26.5107 26.3954 26.1129 26.4363 25.41 26.4363V32.4964ZM30.0009 30.3626H36.0611C36.0611 29.389 35.9114 28.035 35.1914 26.6181C34.4566 25.1719 33.3659 24.1263 32.2151 23.393C30.2003 22.109 27.6286 21.5595 25.0794 21.2196L24.2785 27.2266L23.4776 33.2335C24.5186 33.3723 25.1855 33.5136 25.5894 33.6264C26.0151 33.7452 25.9655 33.7825 25.7015 33.6143C25.3751 33.4063 24.8058 32.9345 24.3862 32.1087C23.9814 31.3122 23.9408 30.6249 23.9408 30.3626H30.0009ZM24.2785 27.2266L25.1212 21.2253C21.6881 20.7432 20.6611 20.0478 20.5037 19.9121C20.4882 19.8988 20.5131 19.9182 20.5512 19.9721C20.5896 20.0264 20.6141 20.0773 20.6254 20.1066C20.6445 20.1561 20.5749 20.0103 20.5749 19.4996H14.5147H8.45461C8.45461 22.7349 9.37929 26.3253 12.5913 29.0934C15.4164 31.528 19.2713 32.643 23.4358 33.2278L24.2785 27.2266ZM14.5147 19.4996H20.5749C20.5749 19.3255 20.6065 19.3096 20.5759 19.3715C20.5416 19.441 20.5228 19.4203 20.649 19.3276C20.9641 19.0961 22.1481 18.4794 24.9898 18.4794V12.4193V6.35917C20.6541 6.35917 16.6006 7.26204 13.4725 9.56035C10.1253 12.0197 8.45461 15.6411 8.45461 19.4996H14.5147ZM24.9898 12.4193V18.4794C28.4115 18.4794 29.5849 19.0926 29.7699 19.2212C29.779 19.2275 29.6593 19.1307 29.5745 18.9501C29.5074 18.8073 29.5663 18.8306 29.5663 19.1763H35.6264H41.6865C41.6865 15.5276 40.3101 11.7883 36.69 9.27068C33.5046 7.05543 29.3596 6.35917 24.9898 6.35917V12.4193ZM35.6264 19.1763H29.5663C29.5663 19.3483 29.5526 19.5675 29.5151 20.1311L35.5618 20.5342L41.6085 20.9373C41.6356 20.531 41.6865 19.845 41.6865 19.1763H35.6264ZM35.5618 20.5342L35.85 14.4809C35.0833 14.4444 33.9199 14.4094 32.7167 14.4094V20.4695V26.5297C33.7119 26.5297 34.6824 26.5593 35.2735 26.5875L35.5618 20.5342ZM32.7167 20.4695V14.4094C31.5197 14.4094 30.292 14.4441 29.5187 14.4809L29.807 20.5342L30.0952 26.5875C30.6798 26.5596 31.7152 26.5297 32.7167 26.5297V20.4695ZM29.807 20.5342L35.8062 21.3913C35.9101 20.6637 35.8994 19.9647 35.8994 19.8553H29.8393H23.7792C23.7792 19.9069 23.7791 19.9326 23.7789 19.9558C23.7787 19.9768 23.7785 19.9808 23.7787 19.9738C23.779 19.9671 23.78 19.9392 23.7834 19.8951C23.7867 19.8522 23.7935 19.7769 23.8078 19.6771L29.807 20.5342ZM29.8393 19.8553H35.8994C35.8994 18.868 35.7405 17.5038 35.0053 16.0955C34.2391 14.6277 33.0864 13.5695 31.8295 12.8659C29.6501 11.6459 27.0458 11.435 24.7958 11.435V17.4952V23.5553C25.618 23.5553 26.0916 23.6053 26.3202 23.6439C26.5699 23.6861 26.3421 23.6842 25.9093 23.4419C25.396 23.1546 24.7283 22.5995 24.2611 21.7045C23.8249 20.8691 23.7792 20.1474 23.7792 19.8553H29.8393ZM24.7958 17.4952V11.435C22.9757 11.435 20.6798 11.6164 18.669 12.7191C17.5344 13.3413 16.4257 14.293 15.6485 15.6609C14.8822 17.0097 14.662 18.3689 14.662 19.4673H20.7222H26.7823C26.7823 19.9676 26.6793 20.7812 26.1868 21.6481C25.6834 22.5341 25.0051 23.0675 24.4969 23.3462C24.0448 23.5941 23.7626 23.625 23.8686 23.6066C23.9577 23.5912 24.2405 23.5553 24.7958 23.5553V17.4952ZM20.7222 19.4673H14.662C14.662 20.2782 14.7676 21.5944 15.4817 23.0121C16.2077 24.4533 17.2966 25.4784 18.4197 26.1889C20.3811 27.4298 22.9353 28.0072 25.6514 28.3807L26.4769 22.377L27.3024 16.3734C26.1824 16.2194 25.4679 16.0647 25.0384 15.9437C24.5842 15.8158 24.629 15.7751 24.8997 15.9464C25.2308 16.1558 25.8509 16.6556 26.3061 17.5592C26.7495 18.4394 26.7823 19.206 26.7823 19.4673H20.7222ZM26.4769 22.377L25.6278 28.3774C27.0892 28.5842 28.1277 28.8358 28.8528 29.0887C29.5744 29.3404 29.8515 29.547 29.9089 29.5948C29.9232 29.6067 29.8579 29.5406 29.8242 29.4581C29.809 29.421 29.8896 29.5902 29.8896 30.1363H35.9497H42.0099C42.0099 26.5623 40.8814 22.9558 37.6583 20.2756C34.8318 17.9252 31.0918 16.9096 27.3261 16.3767L26.4769 22.377ZM35.9497 30.1363H29.8896C29.8896 30.3303 29.8724 30.4637 29.8562 30.5462C29.8403 30.6268 29.8248 30.6617 29.8232 30.6652C29.8224 30.667 29.8263 30.6592 29.8321 30.6519C29.8376 30.645 29.8257 30.6626 29.7764 30.7006C29.5509 30.8741 28.4502 31.5121 25.4424 31.5121V37.5723V43.6324C29.8382 43.6324 33.9912 42.7509 37.1684 40.3057C40.5973 37.6668 42.0099 33.8952 42.0099 30.1363H35.9497ZM25.4424 37.5723V31.5121C21.8646 31.5121 20.5248 30.9027 20.2258 30.7043C20.1692 30.6667 20.2827 30.7391 20.3719 30.9209C20.4442 31.0683 20.3809 31.0477 20.3809 30.6859H14.3208H8.26063C8.26063 34.5373 9.78474 38.3216 13.5239 40.8031C16.7813 42.9648 21.0023 43.6324 25.4424 43.6324V37.5723ZM14.3208 30.6859H20.3809C20.3809 30.4429 20.3946 30.1974 20.4364 29.8421L14.4177 29.1341L8.39913 28.426C8.3116 29.17 8.26063 29.8943 8.26063 30.6859H14.3208ZM14.4177 29.1341L13.2838 35.0872C14.5415 35.3267 16.1374 35.3882 17.3598 35.3882V29.328V23.2679C16.9019 23.2679 16.4657 23.2546 16.103 23.2316C15.7031 23.2062 15.5344 23.1777 15.5517 23.181L14.4177 29.1341ZM17.3598 29.328V35.3882C18.6724 35.3882 19.9653 35.3543 21.0405 35.2746L20.5928 29.2311L20.1452 23.1875C19.4746 23.2372 18.5043 23.2679 17.3598 23.2679V29.328Z" fill="white" mask="url(#path-2-outside-1_2020_147)"/>
<path d="M24.8158 6.84782C25.3786 5.77187 26.9366 5.77199 27.4994 6.84782L27.5531 6.95915L32.7035 18.9191L45.6693 20.1213C46.9964 20.2443 47.5329 21.8949 46.5316 22.7746L36.7484 31.3693L39.6117 44.0724C39.9048 45.3726 38.5009 46.3926 37.3549 45.7121L26.1576 39.0636L14.9613 45.7121C13.8153 46.3926 12.4105 45.3726 12.7035 44.0724L15.5668 31.3693L5.7836 22.7746C4.78268 21.8949 5.31893 20.2443 6.6459 20.1213L19.6117 18.9191L24.7631 6.95915L24.8158 6.84782Z" fill="#838383" stroke="#393939" stroke-width="1.93383"/>
<mask id="path-5-outside-2_2020_147" maskUnits="userSpaceOnUse" x="12.0469" y="11.9211" width="29" height="30" fill="black">
<rect fill="white" x="12.0469" y="11.9211" width="29" height="30"/>
<path d="M16.849 33.5529C17.9986 34.1386 19.2023 34.5778 20.4603 34.8706C21.7183 35.1634 22.8895 35.3098 23.974 35.3098C25.2211 35.3098 26.1321 35.1309 26.7069 34.773C27.2925 34.4151 27.5853 33.9271 27.5853 33.3089C27.5853 33.1137 27.5473 32.9131 27.4714 32.7071C27.4064 32.501 27.2708 32.3004 27.0647 32.1052C26.8695 31.8991 26.593 31.6985 26.2351 31.5033C25.8881 31.2972 25.4326 31.0966 24.8687 30.9014L21.9569 29.9091C19.8747 29.1934 18.3076 28.2282 17.2557 27.0136C16.2038 25.7881 15.6778 24.3349 15.6778 22.654C15.6778 21.5695 15.9055 20.5284 16.361 19.5307C16.8165 18.5222 17.5051 17.6383 18.4269 16.8792C19.3487 16.1092 20.5091 15.4965 21.9081 15.041C23.3179 14.5855 24.9663 14.3578 26.8533 14.3578C27.7859 14.3578 28.6806 14.412 29.5373 14.5205C30.3941 14.6289 31.1966 14.7699 31.9449 14.9434C32.704 15.1169 33.3981 15.3176 34.0271 15.5453C34.656 15.7622 35.2091 15.9791 35.6863 16.196L33.9295 19.3681C33.5824 19.1512 33.2137 18.9614 32.8233 18.7987C32.4437 18.636 32.0587 18.5005 31.6683 18.392C31.2888 18.2836 30.9146 18.2022 30.5459 18.148C30.1772 18.0938 29.841 18.0667 29.5373 18.0667C29.0168 18.0667 28.5613 18.1372 28.1709 18.2782C27.7805 18.4083 27.4497 18.5872 27.1786 18.815C26.9183 19.0319 26.7177 19.2813 26.5767 19.5633C26.4466 19.8344 26.3815 20.1055 26.3815 20.3766C26.3815 20.6152 26.4358 20.8484 26.5442 21.0761C26.6635 21.293 26.8587 21.5099 27.1298 21.7268C27.4118 21.9328 27.7751 22.1443 28.2197 22.3612C28.6752 22.5672 29.2391 22.7841 29.9115 23.0119L31.8635 23.6626C33.9783 24.3675 35.5941 25.3381 36.7111 26.5744C37.8281 27.8107 38.3866 29.3072 38.3866 31.0641C38.3866 32.257 38.1155 33.3577 37.5733 34.3663C37.0419 35.3749 36.2448 36.2479 35.182 36.9853C34.1192 37.7119 32.7962 38.2812 31.2129 38.6933C29.6404 39.0946 27.813 39.2952 25.7308 39.2952C24.7331 39.2952 23.768 39.241 22.8353 39.1326C21.9135 39.035 21.008 38.8831 20.1187 38.6771C19.2403 38.471 18.3727 38.2108 17.516 37.8963C16.6592 37.5818 15.8025 37.213 14.9458 36.7901L16.849 33.5529Z"/>
</mask>
<path d="M16.849 33.5529C17.9986 34.1386 19.2023 34.5778 20.4603 34.8706C21.7183 35.1634 22.8895 35.3098 23.974 35.3098C25.2211 35.3098 26.1321 35.1309 26.7069 34.773C27.2925 34.4151 27.5853 33.9271 27.5853 33.3089C27.5853 33.1137 27.5473 32.9131 27.4714 32.7071C27.4064 32.501 27.2708 32.3004 27.0647 32.1052C26.8695 31.8991 26.593 31.6985 26.2351 31.5033C25.8881 31.2972 25.4326 31.0966 24.8687 30.9014L21.9569 29.9091C19.8747 29.1934 18.3076 28.2282 17.2557 27.0136C16.2038 25.7881 15.6778 24.3349 15.6778 22.654C15.6778 21.5695 15.9055 20.5284 16.361 19.5307C16.8165 18.5222 17.5051 17.6383 18.4269 16.8792C19.3487 16.1092 20.5091 15.4965 21.9081 15.041C23.3179 14.5855 24.9663 14.3578 26.8533 14.3578C27.7859 14.3578 28.6806 14.412 29.5373 14.5205C30.3941 14.6289 31.1966 14.7699 31.9449 14.9434C32.704 15.1169 33.3981 15.3176 34.0271 15.5453C34.656 15.7622 35.2091 15.9791 35.6863 16.196L33.9295 19.3681C33.5824 19.1512 33.2137 18.9614 32.8233 18.7987C32.4437 18.636 32.0587 18.5005 31.6683 18.392C31.2888 18.2836 30.9146 18.2022 30.5459 18.148C30.1772 18.0938 29.841 18.0667 29.5373 18.0667C29.0168 18.0667 28.5613 18.1372 28.1709 18.2782C27.7805 18.4083 27.4497 18.5872 27.1786 18.815C26.9183 19.0319 26.7177 19.2813 26.5767 19.5633C26.4466 19.8344 26.3815 20.1055 26.3815 20.3766C26.3815 20.6152 26.4358 20.8484 26.5442 21.0761C26.6635 21.293 26.8587 21.5099 27.1298 21.7268C27.4118 21.9328 27.7751 22.1443 28.2197 22.3612C28.6752 22.5672 29.2391 22.7841 29.9115 23.0119L31.8635 23.6626C33.9783 24.3675 35.5941 25.3381 36.7111 26.5744C37.8281 27.8107 38.3866 29.3072 38.3866 31.0641C38.3866 32.257 38.1155 33.3577 37.5733 34.3663C37.0419 35.3749 36.2448 36.2479 35.182 36.9853C34.1192 37.7119 32.7962 38.2812 31.2129 38.6933C29.6404 39.0946 27.813 39.2952 25.7308 39.2952C24.7331 39.2952 23.768 39.241 22.8353 39.1326C21.9135 39.035 21.008 38.8831 20.1187 38.6771C19.2403 38.471 18.3727 38.2108 17.516 37.8963C16.6592 37.5818 15.8025 37.213 14.9458 36.7901L16.849 33.5529Z" fill="white"/>
<path d="M16.849 33.5529L17.7536 31.7773L16.082 30.9258L15.1312 32.543L16.849 33.5529ZM26.7069 34.773L25.6678 33.0726L25.6607 33.077L25.6536 33.0814L26.7069 34.773ZM27.4714 32.7071L25.5712 33.3071L25.5853 33.3519L25.6016 33.396L27.4714 32.7071ZM27.0647 32.1052L25.6181 33.4757L25.6552 33.5148L25.6943 33.5518L27.0647 32.1052ZM26.2351 31.5033L25.2178 33.2168L25.249 33.2353L25.2809 33.2527L26.2351 31.5033ZM24.8687 30.9014L25.5205 29.0183L25.5115 29.0152L24.8687 30.9014ZM21.9569 29.9091L21.3091 31.7936L21.3141 31.7953L21.9569 29.9091ZM17.2557 27.0136L15.7436 28.3115L15.7494 28.3182L17.2557 27.0136ZM16.361 19.5307L18.1738 20.3583L18.1771 20.3509L16.361 19.5307ZM18.4269 16.8792L19.6938 18.4175L19.7044 18.4086L18.4269 16.8792ZM21.9081 15.041L21.2955 13.1448L21.2912 13.1462L21.9081 15.041ZM31.9449 14.9434L31.4947 16.8846L31.5008 16.886L31.9449 14.9434ZM34.0271 15.5453L33.3486 17.419L33.363 17.4242L33.3774 17.4292L34.0271 15.5453ZM35.6863 16.196L37.4295 17.1615L38.4746 15.2745L36.5109 14.3819L35.6863 16.196ZM33.9295 19.3681L32.8733 21.0579L34.6548 22.1713L35.6727 20.3335L33.9295 19.3681ZM32.8233 18.7987L32.0383 20.6303L32.0476 20.6343L32.0569 20.6382L32.8233 18.7987ZM31.6683 18.392L31.1209 20.3081L31.1279 20.3101L31.135 20.3121L31.6683 18.392ZM28.1709 18.2782L28.8011 20.1686L28.8245 20.1608L28.8477 20.1524L28.1709 18.2782ZM27.1786 18.815L28.4543 20.3458L28.4603 20.3408L27.1786 18.815ZM26.5767 19.5633L24.7944 18.6721L24.7872 18.6865L24.7802 18.7009L26.5767 19.5633ZM26.5442 21.0761L24.745 21.9328L24.7701 21.9854L24.7981 22.0364L26.5442 21.0761ZM27.1298 21.7268L25.885 23.2828L25.9189 23.31L25.9541 23.3357L27.1298 21.7268ZM28.2197 22.3612L27.346 24.1522L27.372 24.1649L27.3984 24.1768L28.2197 22.3612ZM29.9115 23.0119L29.2722 24.8993L29.2813 24.9024L29.9115 23.0119ZM37.5733 34.3663L35.8181 33.4227L35.8142 33.43L35.8103 33.4374L37.5733 34.3663ZM35.182 36.9853L36.3067 38.6304L36.318 38.6225L35.182 36.9853ZM31.2129 38.6933L31.7056 40.6242L31.7148 40.6218L31.2129 38.6933ZM22.8353 39.1326L23.0655 37.1532L23.0553 37.152L23.0451 37.1509L22.8353 39.1326ZM20.1187 38.6771L19.6636 40.6172L19.6689 40.6184L20.1187 38.6771ZM14.9458 36.7901L13.2279 35.7801L12.1415 37.628L14.0637 38.577L14.9458 36.7901ZM16.849 33.5529L15.9445 35.3286C17.2379 35.9875 18.5937 36.4821 20.0086 36.8114L20.4603 34.8706L20.9121 32.9297C19.811 32.6734 18.7593 32.2897 17.7536 31.7773L16.849 33.5529ZM20.4603 34.8706L20.0086 36.8114C21.3874 37.1324 22.7119 37.3025 23.974 37.3025V35.3098V33.3171C23.0672 33.3171 22.0492 33.1944 20.9121 32.9297L20.4603 34.8706ZM23.974 35.3098V37.3025C25.3258 37.3025 26.7006 37.1243 27.7601 36.4646L26.7069 34.773L25.6536 33.0814C25.5636 33.1374 25.1165 33.3171 23.974 33.3171V35.3098ZM26.7069 34.773L27.746 36.4733C28.8458 35.8012 29.578 34.7082 29.578 33.3089H27.5853H25.5926C25.5926 33.3051 25.5932 33.2791 25.604 33.2382C25.6151 33.1963 25.6332 33.1529 25.6569 33.1133C25.7068 33.0303 25.7422 33.0271 25.6678 33.0726L26.7069 34.773ZM27.5853 33.3089H29.578C29.578 32.8512 29.4884 32.4175 29.3413 32.0182L27.4714 32.7071L25.6016 33.396C25.6063 33.4087 25.5926 33.3763 25.5926 33.3089H27.5853ZM27.4714 32.7071L29.3717 32.107C29.1777 31.4928 28.8123 31.0157 28.4352 30.6585L27.0647 32.1052L25.6943 33.5518C25.7293 33.585 25.635 33.5092 25.5712 33.3071L27.4714 32.7071ZM27.0647 32.1052L28.5114 30.7347C28.1253 30.3271 27.6575 30.0092 27.1893 29.7539L26.2351 31.5033L25.2809 33.2527C25.3988 33.317 25.4831 33.3713 25.5407 33.4131C25.5989 33.4554 25.62 33.4776 25.6181 33.4757L27.0647 32.1052ZM26.2351 31.5033L27.2525 29.7898C26.749 29.4909 26.1574 29.2388 25.5205 29.0183L24.8687 30.9014L24.2168 32.7845C24.7078 32.9545 25.0272 33.1036 25.2178 33.2168L26.2351 31.5033ZM24.8687 30.9014L25.5115 29.0152L22.5997 28.0229L21.9569 29.9091L21.3141 31.7953L24.2259 32.7876L24.8687 30.9014ZM21.9569 29.9091L22.6047 28.0246C20.7369 27.3826 19.5141 26.5774 18.762 25.709L17.2557 27.0136L15.7494 28.3182C17.1011 29.879 19.0125 31.0042 21.3091 31.7936L21.9569 29.9091ZM17.2557 27.0136L18.7677 25.7156C18.0395 24.8673 17.6705 23.8799 17.6705 22.654H15.6778H13.6851C13.6851 24.7899 14.368 26.709 15.7436 28.3115L17.2557 27.0136ZM15.6778 22.654H17.6705C17.6705 21.8584 17.8355 21.0993 18.1738 20.3583L16.361 19.5307L14.5482 18.7032C13.9756 19.9576 13.6851 21.2806 13.6851 22.654H15.6778ZM16.361 19.5307L18.1771 20.3509C18.4972 19.6422 18.9886 18.9981 19.6937 18.4174L18.4269 16.8792L17.1601 15.3409C16.0216 16.2785 15.1358 17.4021 14.5449 18.7105L16.361 19.5307ZM18.4269 16.8792L19.7044 18.4086C20.3929 17.8335 21.3148 17.3299 22.525 16.9358L21.9081 15.041L21.2912 13.1462C19.7034 13.6631 18.3046 14.3849 17.1494 15.3498L18.4269 16.8792ZM21.9081 15.041L22.5207 16.9372C23.687 16.5604 25.1202 16.3505 26.8533 16.3505V14.3578V12.3651C24.8124 12.3651 22.9488 12.6106 21.2955 13.1448L21.9081 15.041ZM26.8533 14.3578V16.3505C27.7088 16.3505 28.5196 16.4003 29.2871 16.4974L29.5373 14.5205L29.7876 12.5435C28.8416 12.4238 27.863 12.3651 26.8533 12.3651V14.3578ZM29.5373 14.5205L29.2871 16.4974C30.0847 16.5984 30.8199 16.7282 31.4947 16.8846L31.9449 14.9434L32.395 13.0022C31.5732 12.8116 30.7034 12.6594 29.7876 12.5435L29.5373 14.5205ZM31.9449 14.9434L31.5008 16.886C32.193 17.0443 32.8075 17.2231 33.3486 17.419L34.0271 15.5453L34.7055 13.6716C33.9886 13.412 33.215 13.1896 32.3889 13.0008L31.9449 14.9434ZM34.0271 15.5453L33.3774 17.4292C33.962 17.6307 34.4545 17.825 34.8617 18.0101L35.6863 16.196L36.5109 14.3819C35.9637 14.1331 35.3501 13.8936 34.6767 13.6614L34.0271 15.5453ZM35.6863 16.196L33.9431 15.2305L32.1862 18.4026L33.9295 19.3681L35.6727 20.3335L37.4295 17.1615L35.6863 16.196ZM33.9295 19.3681L34.9856 17.6782C34.5432 17.4017 34.0773 17.1624 33.5897 16.9593L32.8233 18.7987L32.0569 20.6382C32.3501 20.7603 32.6216 20.9006 32.8733 21.0579L33.9295 19.3681ZM32.8233 18.7987L33.6083 16.9671C33.1485 16.77 32.6795 16.6047 32.2017 16.472L31.6683 18.392L31.135 20.3121C31.438 20.3962 31.739 20.502 32.0383 20.6303L32.8233 18.7987ZM31.6683 18.392L32.2158 16.476C31.7566 16.3448 31.2965 16.2442 30.8358 16.1765L30.5459 18.148L30.256 20.1196C30.5328 20.1603 30.8209 20.2224 31.1209 20.3081L31.6683 18.392ZM30.5459 18.148L30.8358 16.1765C30.3918 16.1112 29.9569 16.074 29.5373 16.074V18.0667V20.0594C29.7251 20.0594 29.9626 20.0764 30.256 20.1196L30.5459 18.148ZM29.5373 18.0667V16.074C28.8422 16.074 28.1488 16.1675 27.4941 16.4039L28.1709 18.2782L28.8477 20.1524C28.9739 20.1069 29.1914 20.0594 29.5373 20.0594V18.0667ZM28.1709 18.2782L27.5407 16.3877C26.9502 16.5845 26.3888 16.8759 25.8969 17.2891L27.1786 18.815L28.4603 20.3408C28.5106 20.2985 28.6108 20.2321 28.8011 20.1686L28.1709 18.2782ZM27.1786 18.815L25.9029 17.2841C25.4474 17.6637 25.0673 18.1263 24.7944 18.6721L26.5767 19.5633L28.3591 20.4544C28.3681 20.4363 28.3893 20.4001 28.4543 20.3458L27.1786 18.815ZM26.5767 19.5633L24.7802 18.7009C24.5352 19.2115 24.3888 19.7757 24.3888 20.3766H26.3815H28.3743C28.3743 20.4021 28.371 20.4226 28.368 20.435C28.3652 20.4467 28.3644 20.444 28.3732 20.4256L26.5767 19.5633ZM26.3815 20.3766H24.3888C24.3888 20.9285 24.5166 21.4531 24.745 21.9328L26.5442 21.0761L28.3434 20.2194C28.3476 20.2282 28.356 20.2485 28.3631 20.279C28.3703 20.31 28.3743 20.3434 28.3743 20.3766H26.3815ZM26.5442 21.0761L24.7981 22.0364C25.0836 22.5555 25.4857 22.9634 25.885 23.2828L27.1298 21.7268L28.3747 20.1707C28.3084 20.1177 28.2742 20.0827 28.2613 20.0684C28.2483 20.054 28.2645 20.0689 28.2903 20.1158L26.5442 21.0761ZM27.1298 21.7268L25.9541 23.3357C26.3613 23.6333 26.8354 23.9031 27.346 24.1522L28.2197 22.3612L29.0934 20.5702C28.7147 20.3855 28.4623 20.2324 28.3056 20.1179L27.1298 21.7268ZM28.2197 22.3612L27.3984 24.1768C27.9322 24.4183 28.5614 24.6585 29.2722 24.8993L29.9115 23.0119L30.5508 21.1245C29.9169 20.9098 29.4182 20.7162 29.041 20.5456L28.2197 22.3612ZM29.9115 23.0119L29.2813 24.9024L31.2334 25.553L31.8635 23.6626L32.4937 21.7721L30.5416 21.1214L29.9115 23.0119ZM31.8635 23.6626L31.2334 25.553C33.1283 26.1847 34.4107 27.0007 35.2325 27.9103L36.7111 26.5744L38.1897 25.2384C36.7775 23.6754 34.8282 22.5502 32.4937 21.7721L31.8635 23.6626ZM36.7111 26.5744L35.2325 27.9103C35.9994 28.7591 36.3939 29.7715 36.3939 31.0641H38.3866H40.3794C40.3794 28.843 39.6569 26.8622 38.1897 25.2384L36.7111 26.5744ZM38.3866 31.0641H36.3939C36.3939 31.9419 36.1978 32.7165 35.8181 33.4227L37.5733 34.3663L39.3284 35.3099C40.0332 33.999 40.3794 32.5721 40.3794 31.0641H38.3866ZM37.5733 34.3663L35.8103 33.4374C35.447 34.1268 34.8817 34.7682 34.046 35.3481L35.182 36.9853L36.318 38.6225C37.6079 37.7275 38.6367 36.6229 39.3363 35.2952L37.5733 34.3663ZM35.182 36.9853L34.0574 35.3403C33.2278 35.9074 32.1293 36.3957 30.7109 36.7649L31.2129 38.6933L31.7148 40.6218C33.463 40.1668 35.0107 39.5163 36.3067 38.6303L35.182 36.9853ZM31.2129 38.6933L30.7201 36.7625C29.3466 37.113 27.6911 37.3025 25.7308 37.3025V39.2952V41.288C27.9349 41.288 29.9342 41.0762 31.7056 40.6242L31.2129 38.6933ZM25.7308 39.2952V37.3025C24.8053 37.3025 23.9171 37.2522 23.0655 37.1532L22.8353 39.1326L22.6051 41.1119C23.6188 41.2298 24.661 41.288 25.7308 41.288V39.2952ZM22.8353 39.1326L23.0451 37.1509C22.2028 37.0617 21.3775 36.9232 20.5685 36.7358L20.1187 38.6771L19.6689 40.6184C20.6385 40.843 21.6242 41.0082 22.6255 41.1142L22.8353 39.1326ZM20.1187 38.6771L20.5738 36.737C19.7748 36.5496 18.9845 36.3126 18.2027 36.0256L17.516 37.8963L16.8293 39.7669C17.7609 40.1089 18.7058 40.3925 19.6636 40.6171L20.1187 38.6771ZM17.516 37.8963L18.2027 36.0256C17.4155 35.7366 16.624 35.3962 15.8279 35.0032L14.9458 36.7901L14.0637 38.577C14.981 39.0298 15.9029 39.4269 16.8293 39.7669L17.516 37.8963ZM14.9458 36.7901L16.6636 37.8001L18.5668 34.5629L16.849 33.5529L15.1312 32.543L13.2279 35.7801L14.9458 36.7901Z" fill="#393939" mask="url(#path-5-outside-2_2020_147)"/>
<defs>
<linearGradient id="paint0_linear_2020_147" x1="26.1578" y1="6.16425" x2="26.1578" y2="49.692" gradientUnits="userSpaceOnUse">
<stop stop-color="#BFBFBF"/>
<stop offset="1" stop-color="#494949"/>
</linearGradient>
</defs>
</svg>
